<svg xmlns="http://www.w3.org/2000/svg" width="58" height="41" viewBox="0 0 58 41" fill="none"><path d="M57.2091 30.7501H56.1545V23.3911C56.1545 21.2885 54.5727 19.7116 52.4636 19.7116V3.9424C52.4636 1.83983 50.8818 0.26291 48.7727 0.26291H9.49091C7.38182 9.0003e-05 5.53636 1.57701 5.53636 3.67958V19.4488C3.42727 19.4488 1.84545 21.0257 1.84545 23.1283V30.4873H1.05455C0.527273 30.4873 0 31.0129 0 31.5385V35.218C0 35.7437 0.527273 36.2693 1.05455 36.2693H2.10909V39.9488C2.10909 40.4744 2.63636 41.0001 3.16364 41.0001H6.06364C6.59091 41.0001 6.85455 40.7373 6.85455 40.2116L7.64545 36.2693H51.1455L51.9364 40.2116C51.9364 40.7373 52.4636 41.0001 52.7273 41.0001H55.6273C56.1545 41.0001 56.6818 40.4744 56.6818 39.9488V36.2693H57.7364C58.2636 36.2693 58.7909 35.7437 58.7909 35.218V31.5385C58 31.2757 57.7364 30.7501 57.2091 30.7501ZM7.38182 3.67958C7.38182 2.62829 8.17273 1.83983 9.22727 1.83983H48.5091C49.5636 1.83983 50.3545 2.62829 50.3545 3.67958V19.4488H48.5091V15.7693C48.5091 13.6668 46.9273 12.0898 44.8182 12.0898H33.4818C31.3727 12.0898 29.7909 13.6668 29.7909 15.7693V19.4488H27.9455V15.7693C27.9455 13.6668 26.3636 12.0898 24.2545 12.0898H13.1818C11.0727 12.0898 9.49091 13.9296 9.49091 15.7693V19.4488H7.38182V3.67958ZM46.9273 15.7693V19.4488H31.9V15.7693C31.9 14.718 32.6909 13.9296 33.7455 13.9296H44.8182C45.8727 13.9296 46.9273 14.718 46.9273 15.7693ZM26.1 15.7693V19.4488H11.3364V15.7693C11.3364 14.718 12.1273 13.9296 13.1818 13.9296H24.5182C25.3091 13.9296 26.1 14.718 26.1 15.7693ZM3.69091 23.3911C3.69091 22.3398 4.48182 21.5514 5.53636 21.5514H52.4636C53.5182 21.5514 54.3091 22.3398 54.3091 23.3911V30.7501H3.69091V23.3911ZM4.74545 39.1603H3.69091V36.2693H5.27273L4.74545 39.1603ZM54.3091 39.1603H53.2546L52.7273 36.2693H54.3091V39.1603ZM56.1545 34.4296H1.84545V32.5898H56.1545V34.4296Z" fill="#1A1A1A"></path></svg>