<svg version="1.2" xmlns="http://www.w3.org/2000/svg" viewBox="0 0 512 436" width="512" height="436">
	<title>bedWhite</title>
	<style>
		.s0 { fill: #ffffff } 
	</style>
	<g id="Layer">
		<path id="Layer" fill-rule="evenodd" class="s0" d="m499.1 344.6q1.4 0.6 2.6 1.7 1.1 1.2 1.7 2.6 0.6 1.5 0.6 3.1v32q0 1.6-0.6 3.1-0.6 1.4-1.7 2.6-1.2 1.1-2.6 1.7-1.5 0.6-3.1 0.6h-8v32q0 1.6-0.6 3.1-0.6 1.4-1.7 2.6-1.2 1.1-2.6 1.7-1.5 0.6-3.1 0.6h-24q-1.4 0-2.7-0.5-1.3-0.4-2.4-1.3-1-0.9-1.8-2.1-0.7-1.2-0.9-2.5l-6.8-33.6h-370.8l-6.8 33.6q-0.2 1.3-0.9 2.5-0.8 1.2-1.8 2.1-1.1 0.9-2.4 1.3-1.3 0.5-2.7 0.5h-24q-1.6 0-3.1-0.6-1.4-0.6-2.6-1.7-1.1-1.2-1.7-2.6-0.6-1.5-0.6-3.1v-32h-8q-1.6 0-3.1-0.6-1.4-0.6-2.6-1.7-1.1-1.2-1.7-2.6-0.6-1.5-0.6-3.1v-32q0-1.6 0.6-3.1 0.6-1.4 1.7-2.6 1.2-1.1 2.6-1.7 1.5-0.6 3.1-0.6h8v-64c0-4.2 0.8-8.4 2.4-12.2 1.7-3.9 4-7.4 7-10.4 3-3 6.5-5.3 10.4-7 3.8-1.6 8-2.4 12.2-2.4v-136c0-4.2 0.8-8.4 2.4-12.2 1.7-3.9 4-7.4 7-10.4 3-3 6.5-5.3 10.4-7 3.8-1.6 8-2.4 12.2-2.4h336c4.2 0 8.4 0.8 12.2 2.4 3.9 1.7 7.4 4 10.4 7 3 3 5.3 6.5 7 10.4 1.6 3.8 2.4 8 2.4 12.2v136c4.2 0 8.4 0.8 12.2 2.4 3.9 1.7 7.4 4 10.4 7 3 3 5.3 6.5 7 10.4 1.6 3.8 2.4 8 2.4 12.2v64h8q1.6 0 3.1 0.6zm-427.1-96.6h16v-32c0-4.2 0.8-8.4 2.4-12.2 1.7-3.9 4-7.4 7-10.4 3-3 6.5-5.3 10.4-7 3.8-1.6 8-2.4 12.2-2.4h96c4.2 0 8.4 0.8 12.2 2.4 3.9 1.7 7.4 4 10.4 7 3 3 5.3 6.5 7 10.4 1.6 3.8 2.4 8 2.4 12.2v32h16v-32c0-4.2 0.8-8.4 2.4-12.2 1.7-3.9 4-7.4 7-10.4 3-3 6.5-5.3 10.4-7 3.8-1.6 8-2.4 12.2-2.4h96c4.2 0 8.4 0.8 12.2 2.4 3.9 1.7 7.4 4 10.4 7 3 3 5.3 6.5 7 10.4 1.6 3.8 2.4 8 2.4 12.2v32h16v-136c0-2.1-0.4-4.2-1.2-6.1-0.8-2-2-3.7-3.5-5.2-1.5-1.5-3.2-2.7-5.2-3.5-1.9-0.8-4-1.2-6.1-1.2h-336c-2.1 0-4.2 0.4-6.1 1.2-2 0.8-3.7 2-5.2 3.5-1.5 1.5-2.7 3.2-3.5 5.2-0.8 1.9-1.2 4-1.2 6.1zm334.8-38.1c-0.8-2-2-3.7-3.5-5.2-1.5-1.5-3.2-2.7-5.2-3.5-1.9-0.8-4-1.2-6.1-1.2h-96c-2.1 0-4.2 0.4-6.1 1.2-2 0.8-3.7 2-5.2 3.5-1.5 1.5-2.7 3.2-3.5 5.2-0.8 1.9-1.2 4-1.2 6.1v32h128v-32c0-2.1-0.4-4.2-1.2-6.1zm-176 0c-0.8-2-2-3.7-3.5-5.2-1.5-1.5-3.2-2.7-5.2-3.5-1.9-0.8-4-1.2-6.1-1.2h-96c-2.1 0-4.2 0.4-6.1 1.2-2 0.8-3.7 2-5.2 3.5-1.5 1.5-2.7 3.2-3.5 5.2-0.8 1.9-1.2 4-1.2 6.1v32h128v-32c0-2.1-0.4-4.2-1.2-6.1zm-190.8 134.1h432v-64c0-2.1-0.4-4.2-1.2-6.1-0.8-2-2-3.7-3.5-5.2-1.5-1.5-3.2-2.7-5.2-3.5-1.9-0.8-4-1.2-6.1-1.2h-400c-2.1 0-4.2 0.4-6.1 1.2-2 0.8-3.7 2-5.2 3.5-1.5 1.5-2.7 3.2-3.5 5.2-0.8 1.9-1.2 4-1.2 6.1zm14.2 48h-14.2v24h9.4zm417.8 0h-14.2l4.8 24h9.4zm16-32h-464v16h464z"/>
	</g>
</svg>