<svg xmlns="http://www.w3.org/2000/svg" width="41" height="32" viewBox="0 0 41 32" fill="none"><path d="M37.5833 20.072V19.6666C37.5833 12.7952 33.5596 6.72783 27.2874 4.01895L27.3299 3.50837C27.35 3.27062 27.2699 3.03455 27.108 2.85942C26.9462 2.6834 26.7177 2.58331 26.4791 2.58331H23.4413C22.8485 1.56704 21.7586 0.875 20.5 0.875C19.2414 0.875 18.1515 1.56704 17.5586 2.58331H14.5208C14.2823 2.58331 14.0537 2.6834 13.8919 2.85942C13.73 3.03463 13.65 3.27062 13.67 3.50837L13.7125 4.01879C7.4411 6.72735 3.41669 12.7942 3.41669 19.6667V20.0721C1.12974 20.8927 0 21.8789 0 23.0833C0 26.3015 9.58103 31.625 20.5 31.625C31.419 31.625 41 26.3015 41 23.0833C41 21.8789 39.8703 20.8927 37.5833 20.072ZM5.125 19.6667C5.125 13.6842 8.53481 8.40843 13.866 5.8605L14.5242 13.7584C14.5608 14.2047 14.9346 14.5417 15.3733 14.5417C15.3984 14.5417 15.4217 14.5409 15.4467 14.5383C15.9155 14.4991 16.2659 14.0871 16.2258 13.6166L15.4484 4.29169H17.0834V18.8125C17.0834 19.2846 17.4654 19.6667 17.9376 19.6667C18.4097 19.6667 18.7918 19.2846 18.7918 18.8125V4.29169C18.7918 3.34997 19.5576 2.58339 20.5001 2.58339C21.4426 2.58339 22.2084 3.34997 22.2084 4.29169V18.8125C22.2084 19.2846 22.5904 19.6667 23.0626 19.6667C23.5347 19.6667 23.9168 19.2846 23.9168 18.8125V4.29169H25.5517L24.7743 13.6166C24.7343 14.0871 25.0846 14.4992 25.5534 14.5383C25.5785 14.5408 25.6018 14.5417 25.6268 14.5417C26.0656 14.5417 26.4393 14.2047 26.476 13.7584L27.1342 5.8605C32.4658 8.40795 35.875 13.6844 35.875 19.6667V21.7404C34.527 22.4762 29.5622 24.7917 20.5 24.7917C11.4846 24.7917 6.48465 22.4728 5.125 21.7379V19.6667ZM20.5 29.9167C9.7178 29.9167 1.70831 24.6841 1.70831 23.0834C1.70831 22.9375 2.06634 22.4639 3.41661 21.9005V22.2292C3.41661 22.5145 3.56011 22.7814 3.79698 22.9399C4.0156 23.085 9.26568 26.5 20.5 26.5C31.7343 26.5 36.9844 23.085 37.2029 22.9399C37.4398 22.7814 37.5833 22.5144 37.5833 22.2292V21.9003C38.9337 22.4637 39.2916 22.9375 39.2916 23.0833C39.2917 24.6841 31.2822 29.9167 20.5 29.9167Z" fill="#C4C4C4"></path></svg>