<svg width="24" height="21" viewBox="0 0 24 21" fill="none" xmlns="http://www.w3.org/2000/svg">
<g clip-path="url(#clip0)">
<path d="M22.871 8.50607L12.5776 0.381765C11.9547 -0.116838 11.0648 -0.116838 10.4418 0.381765L0.178148 8.50607C-0.029499 8.65272 -0.0591628 8.94601 0.11882 9.12199L1.691 11.0577C1.77999 11.1457 1.86898 11.2044 1.98764 11.2337C2.1063 11.2337 2.22495 11.2044 2.31394 11.1457L3.26318 10.4125V20.5605C3.26318 20.7952 3.47083 21.0005 3.70814 21.0005H9.49258C9.72989 21.0005 9.93754 20.7952 9.93754 20.5605C9.93754 20.3259 9.72989 20.1206 9.49258 20.1206H4.1531V9.67925L11.5394 3.84266L18.896 9.67925V20.0913H13.5565C13.3192 20.0913 13.1116 20.2966 13.1116 20.5312C13.1116 20.7658 13.3192 20.9712 13.5565 20.9712H19.3706C19.6079 20.9712 19.8156 20.7658 19.8156 20.5312V10.4125L20.7648 11.1457C20.8538 11.2044 20.9428 11.2337 21.0318 11.2337C21.0615 11.2337 21.0615 11.2337 21.0911 11.2337C21.2098 11.2337 21.3284 11.1751 21.3878 11.0577L22.96 9.12199C23.0786 8.94601 23.0489 8.65272 22.871 8.50607ZM20.9428 10.1779L11.8064 2.93344C11.7174 2.87478 11.6284 2.84545 11.5394 2.84545C11.4504 2.84545 11.3317 2.87478 11.2724 2.93344L2.1063 10.1779L1.09773 8.91668L11.0054 1.05635C11.3021 0.821709 11.7174 0.821709 12.014 1.05635L21.9514 8.91668L20.9428 10.1779Z" fill="#C4C4C4"/>
<path d="M15.3663 10.2069C14.2984 9.15107 12.5779 9.15107 11.5397 10.2069C10.4718 9.15107 8.75127 9.15107 7.71303 10.2069C6.64514 11.2628 6.64514 12.9639 7.71303 13.9905L10.9761 17.2167C11.1244 17.3634 11.3617 17.4514 11.5693 17.4514C11.777 17.4514 11.9846 17.3634 12.1626 17.2167L15.4256 13.9905C16.4342 12.9639 16.4342 11.2628 15.3663 10.2069ZM14.7434 13.3745L11.51 16.5715L8.30631 13.3745C7.59438 12.6706 7.59438 11.5268 8.30631 10.8229C8.66227 10.4709 9.13689 10.2949 9.58185 10.2949C10.0565 10.2949 10.5014 10.4709 10.8574 10.8229L11.1837 11.1455C11.2727 11.2335 11.3913 11.2628 11.51 11.2628C11.6287 11.2628 11.7473 11.2041 11.8363 11.1455L12.1626 10.8522C12.8745 10.1483 14.0314 10.1483 14.7434 10.8522C15.4553 11.5561 15.4553 12.7 14.7434 13.3745Z" fill="#C4C4C4"/>
</g>
<defs>
<clipPath id="clip0">
<rect width="23.0488" height="21" fill="white"/>
</clipPath>
</defs>
</svg>
