<svg xmlns="http://www.w3.org/2000/svg" width="28" height="28" viewBox="0 0 28 28" fill="none"><path d="M23.8995 4.10047C21.2552 1.45627 17.7395 0 14 0C10.2604 0 6.74466 1.45627 4.10047 4.10047C1.45622 6.74472 0 10.2605 0 14C0 17.7395 1.45622 21.2552 4.10047 23.8995C6.74472 26.5437 10.2604 28 14 28C17.7395 28 21.2552 26.5437 23.8995 23.8995C26.5437 21.2552 28 17.7395 28 14C28 10.2605 26.5437 6.74477 23.8995 4.10047ZM14 26.3594C7.18501 26.3594 1.64062 20.815 1.64062 14C1.64062 7.18501 7.18501 1.64062 14 1.64062C20.815 1.64062 26.3594 7.18501 26.3594 14C26.3594 20.815 20.815 26.3594 14 26.3594Z" fill="white"></path><path d="M20.6887 9.50788C20.3684 9.18763 19.849 9.18763 19.5287 9.50794L12.2848 16.7518L8.47164 12.9386C8.15134 12.6183 7.63192 12.6183 7.31156 12.9386C6.9912 13.2589 6.9912 13.7783 7.31156 14.0987L11.7048 18.4919C11.8649 18.6521 12.0749 18.7321 12.2848 18.7321C12.4947 18.7321 12.7047 18.652 12.8648 18.4919L20.6887 10.668C21.0091 10.3477 21.0091 9.82824 20.6887 9.50788Z" fill="white"></path></svg>