<svg xmlns="http://www.w3.org/2000/svg" width="44" height="44" viewBox="0 0 44 44" fill="none"><g clip-path="url(#clip0)"><path d="M40.6944 22.992C40.2088 22.992 39.7604 23.1104 39.3626 23.2889C38.758 22.5156 37.8195 22.0151 36.7615 22.0141C36.2147 22.0141 35.7118 22.1591 35.2797 22.3765L35.2345 22.4016L33.8836 23.2028C33.278 22.4786 32.3709 22.0146 31.3532 22.0141C30.8065 22.0141 30.3036 22.1591 29.8715 22.3765L29.8174 22.407L24.6451 25.5749C23.4771 25.2298 22.1802 24.8512 20.927 24.4958C19.605 24.1207 18.3337 23.7721 17.3146 23.515C16.8043 23.3862 16.358 23.2804 15.9932 23.2053C15.8103 23.1674 15.648 23.1374 15.504 23.1154C15.358 23.0937 15.2361 23.0785 15.0985 23.078C14.9923 23.0785 14.9003 23.0878 14.7956 23.1006C14.4147 23.1508 13.8728 23.2668 13.2337 23.4167C11.928 23.7235 10.2615 24.1698 9.34065 24.4205V22.862C9.34065 21.7805 8.45575 20.8955 7.37414 20.8955H1.96651C0.8849 20.8957 0 21.7806 0 22.8622V38.1023C0 39.1838 0.8849 40.0688 1.96651 40.0688H7.37423C8.45575 40.0688 9.34074 39.1839 9.34074 38.1023V36.919C10.5079 37.1731 13.0982 37.7326 15.8291 38.2935C17.6762 38.6726 19.585 39.0521 21.1616 39.3381C21.9502 39.4812 22.6557 39.6007 23.2333 39.6852C23.8159 39.7694 24.25 39.8215 24.5808 39.8234C24.8384 39.8225 25.0823 39.7738 25.3458 39.701C25.836 39.5628 26.3939 39.3283 27.0325 39.0181C29.255 37.9346 32.4471 35.9047 35.4582 33.896C38.464 31.8897 41.2755 29.9086 42.653 28.9597C43.5153 28.3654 44.0001 27.361 44.0001 26.2981C43.9986 24.4727 42.5202 22.9929 40.6944 22.992ZM7.86579 38.1021C7.86579 38.3685 7.64063 38.5937 7.37423 38.5937H1.96651C1.7001 38.5937 1.47495 38.3685 1.47495 38.1021V22.8622C1.47495 22.5958 1.7001 22.3706 1.96651 22.3706H7.37423C7.64063 22.3706 7.86579 22.5958 7.86579 22.8622V38.1021ZM41.8168 27.7448C40.1227 28.9119 36.3318 31.5887 32.6624 33.9721C30.8292 35.1628 29.0265 36.2793 27.5482 37.0885C26.8098 37.4931 26.151 37.82 25.6245 38.0388C25.3615 38.1478 25.1314 38.23 24.9489 38.2806C24.7675 38.3322 24.6308 38.3494 24.5812 38.3484C24.4204 38.3499 23.9947 38.3076 23.4476 38.2259C21.5106 37.9423 17.885 37.2181 14.7631 36.5667C13.2008 36.2408 11.7618 35.933 10.7132 35.7069C10.1041 35.5756 9.63413 35.4728 9.34108 35.4094V25.9499C9.4852 25.9101 9.67392 25.8585 9.90054 25.797C10.6778 25.5862 11.864 25.27 12.9279 25.0081C13.4594 24.8767 13.9613 24.7599 14.36 24.6767C14.5586 24.6354 14.7322 24.6025 14.8654 24.5813C14.9961 24.5596 15.0979 24.5518 15.0989 24.5533C15.1014 24.5528 15.1786 24.5577 15.2838 24.574C15.6908 24.6349 16.525 24.8301 17.5412 25.0961C20.6035 25.896 25.432 27.3418 27.3828 27.9341C28.0578 28.1376 28.6689 28.4444 29.0701 28.8166C29.2717 29.0025 29.4231 29.2011 29.5248 29.4159C29.6266 29.6317 29.6841 29.8652 29.6851 30.1508C29.6846 30.7294 29.4526 31.2466 29.0736 31.6267C28.697 32.0018 28.1857 32.2314 27.615 32.2368L25.7119 32.0505L19.2171 31.2166C18.813 31.165 18.4433 31.4501 18.3912 31.8542C18.339 32.2583 18.6252 32.6274 19.0287 32.6796L25.5445 33.5158L27.5612 33.7134H27.5975C29.5644 33.7128 31.1588 32.1185 31.1598 30.1511C31.1607 29.6561 31.0512 29.1905 30.857 28.7829C30.5645 28.1689 30.094 27.6935 29.562 27.3316C29.0281 26.9688 28.4254 26.7103 27.8119 26.5235C27.4698 26.4197 27.0387 26.289 26.5461 26.141L30.5483 23.6893C30.8078 23.5615 31.0733 23.4892 31.3545 23.4887C31.8314 23.4882 32.262 23.673 32.5876 23.972L30.6103 25.1445C30.2603 25.3521 30.1448 25.8048 30.3528 26.1548C30.5607 26.5048 31.013 26.6208 31.3635 26.413L35.9532 23.6909C36.2142 23.5615 36.4812 23.4888 36.7634 23.4888C37.2723 23.4883 37.73 23.7003 38.0618 24.0365L32.7175 27.206C32.367 27.4135 32.252 27.8662 32.4599 28.2167C32.6679 28.5667 33.1202 28.6822 33.4707 28.4743L39.2496 25.0467C39.3057 25.0374 39.3622 25.0236 39.4173 25C39.5357 24.9498 39.6321 24.8702 39.7063 24.7758L39.8867 24.6686C40.1477 24.5393 40.4147 24.4666 40.6968 24.4666C41.2037 24.4671 41.6569 24.6707 41.9908 25.003C42.3231 25.3368 42.5266 25.7905 42.5272 26.2979C42.5247 26.916 42.2415 27.4557 41.8168 27.7448Z" fill="#C4C4C4"></path><path d="M26.6477 12.3269C26.0002 11.852 25.25 11.5909 24.5053 11.3801C24.404 11.3515 24.3047 11.3285 24.2034 11.3019V6.80027C24.9227 6.90795 25.4545 7.13216 25.8085 7.40888C26.0592 7.60361 26.2318 7.82189 26.3502 8.06716C26.4668 8.31251 26.5293 8.58923 26.5297 8.90677C26.5297 9.31386 26.86 9.6442 27.2671 9.6442C27.6742 9.6442 28.0045 9.31386 28.0045 8.90677C28.0051 8.392 27.8994 7.88815 27.6811 7.43148C27.3547 6.74372 26.7736 6.1804 26.0179 5.81362C25.4953 5.5589 24.8857 5.39716 24.2039 5.31707V4.66858C24.2039 4.26098 23.8735 3.93115 23.4664 3.93115C23.0588 3.93115 22.729 4.26098 22.729 4.66858V5.27625C22.1946 5.3175 21.7148 5.42226 21.2901 5.58399C20.4553 5.89964 19.8443 6.43838 19.4661 7.04356C19.0866 7.64916 18.9283 8.30744 18.9278 8.90677C18.9258 9.53747 19.0777 10.1053 19.3634 10.5679C19.6116 10.9731 19.9489 11.2877 20.3167 11.5291C20.9631 11.9514 21.7015 12.1785 22.4374 12.3751C22.5343 12.4002 22.6316 12.4248 22.7285 12.4489V17.2913C22.0111 17.2121 21.461 16.982 21.0919 16.6683C20.6391 16.2789 20.4071 15.7829 20.4022 15.1497C20.4022 14.7421 20.0718 14.4123 19.6647 14.4123C19.2576 14.4123 18.9273 14.7421 18.9273 15.1497C18.9219 16.1806 19.3614 17.1423 20.1391 17.7941C20.8062 18.3585 21.696 18.6967 22.7284 18.7803V19.4208C22.7284 19.8279 23.0582 20.1582 23.4658 20.1582C23.8729 20.1582 24.2033 19.8279 24.2033 19.4208V18.7537C25.0381 18.6695 25.8177 18.4636 26.4844 18.0507C26.9396 17.7665 27.3344 17.3733 27.6009 16.8763C27.8694 16.3807 28.0051 15.7948 28.0039 15.1497C28.0049 14.4766 27.8604 13.8799 27.5861 13.3823C27.3473 12.9469 27.0159 12.5982 26.6477 12.3269ZM22.728 10.9243C22.0102 10.7321 21.3914 10.507 21.0133 10.2169C20.8098 10.063 20.6691 9.90124 20.5683 9.7041C20.4684 9.5055 20.4031 9.25912 20.4021 8.90669C20.4016 8.45345 20.5683 7.91067 20.9753 7.49731C21.1803 7.28839 21.4477 7.10208 21.8139 6.96243C22.0662 6.86661 22.3709 6.79571 22.7279 6.75893V10.9243H22.728ZM26.303 16.1754C26.1987 16.3671 26.0646 16.525 25.8895 16.6665C25.6279 16.877 25.2652 17.0465 24.8129 17.1591C24.6241 17.2063 24.4181 17.2412 24.2033 17.2682V12.8295C24.6541 12.9597 25.0671 13.1034 25.4014 13.2831C25.7746 13.4807 26.0434 13.7049 26.2263 13.9813C26.4072 14.2591 26.5267 14.6076 26.5292 15.1494C26.5281 15.5953 26.4396 15.9201 26.303 16.1754Z" fill="#C4C4C4"></path></g><defs><clipPath id="clip0"><rect width="44" height="44" fill="white"></rect></clipPath></defs></svg>