<svg xmlns="http://www.w3.org/2000/svg" width="14" height="11" viewBox="0 0 14 11" fill="none"><path d="M14 1.81425V1.58249C14 0.709893 13.3233 0 12.4915 0H1.50846C0.676681 0 0 0.709893 0 1.58249V1.81425V1.81594V9.41759C0 10.2901 0.676681 11 1.50846 11H12.4916C13.3233 11 14 10.2901 14 9.41759V1.81594C14 1.81539 14 1.81482 14 1.81425ZM1.50846 0.860581H12.4915C12.871 0.860581 13.1797 1.18442 13.1797 1.58249V1.58269L7.68639 5.42461C7.32074 5.68035 6.67931 5.68032 6.31372 5.42464L0.820319 1.58267V1.58246C0.820319 1.18442 1.12901 0.860581 1.50846 0.860581ZM12.4916 10.1394H1.50846C1.12901 10.1394 0.820319 9.81561 0.820319 9.41759V2.61694L5.85869 6.14067C6.17872 6.36451 6.58929 6.47639 7.00003 6.47639C7.41065 6.47639 7.82141 6.36448 8.14142 6.14067L13.1797 2.61694V9.41759C13.1797 9.81561 12.871 10.1394 12.4916 10.1394Z" fill="white"></path></svg>