<svg xmlns="http://www.w3.org/2000/svg" width="46" height="45" viewBox="0 0 46 45" fill="none"><path d="M39.6868 6.17652C39.3861 5.8824 38.7848 5.8824 38.1835 6.17652L24.3534 20C24.0528 20.2942 24.0528 20.8824 24.3534 21.1765C24.6541 21.4706 24.9547 21.4706 24.9547 21.4706C24.9547 21.4706 25.556 21.4706 25.556 21.1765L39.6868 7.35299C40.2881 7.05887 40.2881 6.47064 39.6868 6.17652Z" fill="#1A1A1A"></path><path d="M39.0856 5.88232C38.4842 5.88232 38.1836 6.17644 38.1836 6.76468V18.5294C38.1836 19.1176 38.4842 19.4117 39.0856 19.4117C39.6869 19.4117 39.9875 19.1176 39.9875 18.5294V6.76468C39.9875 6.17644 39.6869 5.88232 39.0856 5.88232Z" fill="#1A1A1A"></path><path d="M39.0853 5.88232H27.0592C26.4579 5.88232 26.1572 6.17644 26.1572 6.76468C26.1572 7.35291 26.4579 7.94115 27.0592 7.94115H39.0853C39.6866 7.94115 39.9873 7.64703 39.9873 7.0588C39.9873 6.47056 39.6866 5.88232 39.0853 5.88232Z" fill="#1A1A1A"></path><path d="M21.6477 23.8236C21.347 23.5295 20.7457 23.5295 20.4451 23.8236L6.31436 37.6471C6.0137 37.9413 6.0137 38.5295 6.31436 39.1177C6.61501 39.4118 6.91566 39.4118 6.91566 39.4118C6.91566 39.4118 7.51697 39.4118 7.51697 39.1177L21.6477 25.2942C22.249 24.706 22.249 24.1177 21.6477 23.8236Z" fill="#1A1A1A"></path><path d="M6.91466 25.5881C6.31335 25.5881 6.0127 25.8823 6.0127 26.4705V38.2352C6.0127 38.8234 6.31335 39.1175 6.91466 39.1175C7.51596 39.1175 7.81662 38.8234 7.81662 38.2352V26.4705C8.11727 25.8823 7.51596 25.5881 6.91466 25.5881Z" fill="#1A1A1A"></path><path d="M18.9408 37.3528H6.91466C6.31335 37.3528 6.0127 37.6469 6.0127 38.2351C6.0127 38.8234 6.31335 39.1175 6.91466 39.1175H18.9408C19.5421 39.1175 19.8428 38.8234 19.8428 38.2351C20.1434 37.6469 19.5421 37.3528 18.9408 37.3528Z" fill="#1A1A1A"></path><path d="M42.9935 0H3.00654C1.20261 0 0 1.17647 0 2.94118V42.0588C0 43.8235 1.20261 45 3.00654 45H42.9935C44.7974 45 46 43.8235 46 42.0588V2.94118C46 1.17647 44.7974 0 42.9935 0ZM44.1961 42.0588C44.1961 42.6471 43.8954 42.9412 43.2941 42.9412H3.00654C2.40523 42.9412 2.10458 42.6471 2.10458 42.0588V2.94118C2.10458 2.35294 2.40523 2.05882 3.00654 2.05882H42.9935C43.5948 2.05882 43.8954 2.35294 43.8954 2.94118L44.1961 42.0588Z" fill="#1A1A1A"></path></svg>