<?xml version="1.0" encoding="utf-8"?>
<!-- Generator: Adobe Illustrator 27.6.1, SVG Export Plug-In . SVG Version: 6.00 Build 0)  -->
<svg version="1.1" id="Capa_1" xmlns="http://www.w3.org/2000/svg" xmlns:xlink="http://www.w3.org/1999/xlink" x="0px" y="0px"
	 viewBox="0 0 164.3 29.8" style="enable-background:new 0 0 164.3 29.8;" xml:space="preserve">
<style type="text/css">
	.st0{fill:#999999;}
</style>
<g>
	<g>
		<g>
			<g>
				<path class="st0" d="M58.1,5.7c5.7,0,9.9,4.1,9.9,9.6s-4.2,9.6-9.9,9.6h-7.7V5.7H58.1z M58,22.2c4.1,0,6.8-3,6.8-6.9
					S62.1,8.4,58,8.4h-4.7v13.8H58z"/>
			</g>
			<g>
				<path class="st0" d="M71.7,5.7h13.4v2.7H74.6v5.3h9v2.7h-9v5.8h10.8v2.7H71.7V5.7z"/>
			</g>
			<g>
				<path class="st0" d="M103,24.8H89.1V5.7h3v16.5H103V24.8z"/>
			</g>
			<g>
				<path class="st0" d="M106.6,19.2c0.9,1.9,2.7,3.2,5.3,3.2c2.2,0,3.9-1.1,3.9-2.7s-1.5-2.3-4.4-3.2c-3.6-1.2-6.5-2.4-6.5-5.8
					c0-3.5,3.3-5.3,6.5-5.3c3.5,0,5.8,1.9,6.9,4L116,11c-0.8-1.5-2.4-2.9-4.6-2.9c-1.8,0-3.5,0.9-3.5,2.6s1.6,2.1,4.3,3.1
					c3.6,1.2,6.6,2.2,6.6,5.9c0,3.6-3.6,5.4-6.9,5.4c-3.8,0-6.5-1.9-7.6-4.4L106.6,19.2z"/>
			</g>
			<g>
				<path class="st0" d="M122.3,17.9V5.7h2.9v12.1c0,2.8,2,4.6,5.1,4.6c3.1,0,5.1-1.8,5.1-4.6V5.7h2.9v12.2c0,4.4-3.1,7.2-8.1,7.2
					C125.4,25.1,122.3,22.3,122.3,17.9z"/>
			</g>
			<g>
				<path class="st0" d="M150.9,5.7c5.7,0,9.9,4.1,9.9,9.6s-4.2,9.6-9.9,9.6h-7.7V5.7H150.9z M150.8,22.2c4.1,0,6.8-3,6.8-6.9
					s-2.7-6.9-6.8-6.9h-4.7v13.8H150.8z"/>
			</g>
		</g>
		<g>
			<g>
				<path class="st0" d="M25,10.7c0.1,0.1,0.3,0.3,0.4,0.4l0,0l1.3-1.1l0,0c-0.2-0.1-0.3-0.3-0.5-0.4l0,0L25,10.7L25,10.7z"/>
			</g>
			<g>
				<path class="st0" d="M15,12.8c0-0.2-0.1-0.4-0.1-0.6l0,0L4.1,12.1l0,0l0,0c-0.1,0.4-0.2,0.8-0.3,1.2v0.1L15,12.8L15,12.8z"/>
			</g>
			<g>
				<path class="st0" d="M14.8,11.4L14.8,11.4c0-0.2,0-0.4,0-0.6l0,0L5.3,9.1l0,0l0,0C5,9.5,4.9,9.8,4.7,10.2v0.1L14.8,11.4
					L14.8,11.4z"/>
			</g>
			<g>
				<path class="st0" d="M15,10c0-0.2,0.1-0.3,0.2-0.4l0,0L7,6.5l0,0l0,0C6.7,6.8,6.5,7.1,6.2,7.4v0.1L15,10L15,10z"/>
			</g>
			<g>
				<path class="st0" d="M15.5,9L15.5,9c0.1-0.1,0.2-0.2,0.3-0.3l0,0l-6.3-4l0,0l0,0C9.1,4.8,8.7,5,8.4,5.2H8.3L15.5,9L15.5,9z"/>
			</g>
			<g>
				<path class="st0" d="M17.2,16.9L17.2,16.9c-0.2-0.2-0.3-0.4-0.4-0.5l0,0L4.3,21.9l0,0l0,0c0.1,0.4,0.2,0.8,0.4,1.2v0.1
					L17.2,16.9L17.2,16.9z"/>
			</g>
			<g>
				<path class="st0" d="M16.2,8.2L16.2,8.2c0.1-0.1,0.2-0.1,0.3-0.2h0.1l-4.3-4.3l0,0l0,0c-0.2,0-0.3,0-0.5,0.1
					c-0.2,0-0.4,0.1-0.6,0.1h-0.1L16.2,8.2L16.2,8.2z"/>
			</g>
			<g>
				<path class="st0" d="M15.5,14.2c-0.1-0.2-0.2-0.4-0.2-0.6l0,0L3.6,15.3l0,0l0,0c0,0.4,0,0.8,0,1.3v0.1L15.5,14.2L15.5,14.2z"/>
			</g>
			<g>
				<path class="st0" d="M16.2,15.6c-0.1-0.2-0.2-0.3-0.3-0.5l0,0L3.7,18.6l0,0l0,0c0,0.4,0.1,0.8,0.2,1.2v0.1L16.2,15.6L16.2,15.6z
					"/>
			</g>
			<g>
				<path class="st0" d="M22.8,9.1c0.1,0.1,0.3,0.2,0.4,0.3l0,0l0.9-1.5l0,0c-0.2-0.1-0.3-0.2-0.5-0.4l0,0L22.8,9.1L22.8,9.1z"/>
			</g>
			<g>
				<path class="st0" d="M21,8.2L21,8.2l0.6-2l0,0l0,0C21.3,6.1,21.2,6,21,5.9h-0.1L20.5,8l0,0C20.7,8.1,20.8,8.1,21,8.2z"/>
			</g>
			<g>
				<path class="st0" d="M22.1,8.7L22.1,8.7L22.9,7l0,0c-0.2-0.1-0.3-0.2-0.5-0.3l0,0l-0.7,1.8l0,0C21.8,8.5,21.9,8.6,22.1,8.7z"/>
			</g>
			<g>
				<path class="st0" d="M23.9,9.8c0.1,0.1,0.3,0.2,0.4,0.3l0,0l1.1-1.3l0,0c-0.2-0.1-0.3-0.3-0.5-0.4l0,0L23.9,9.8L23.9,9.8z"/>
			</g>
			<g>
				<path class="st0" d="M18.7,7.7c0.1,0,0.2,0,0.3,0h0.1l-0.3-2.8l0,0c-0.2-0.1-0.4-0.1-0.6-0.2h-0.1L18.7,7.7L18.7,7.7z"/>
			</g>
			<g>
				<path class="st0" d="M17.8,7.7L17.8,7.7c0.1,0,0.2,0,0.3,0h0.1L17,4.4l0,0c-0.2-0.1-0.5-0.1-0.7-0.2h-0.1L17.8,7.7L17.8,7.7z"/>
			</g>
			<g>
				<path class="st0" d="M19.9,7.9L19.9,7.9l0.2-2.3l0,0l0,0c-0.2-0.1-0.4-0.2-0.5-0.2h-0.1V8l0,0C19.7,7.8,19.8,7.8,19.9,7.9z"/>
			</g>
			<g>
				<path class="st0" d="M17,7.9L17,7.9c0.1,0,0.2-0.1,0.3-0.1h0.1L15,3.9l0,0l0,0c-0.2,0-0.5-0.1-0.7-0.1c-0.1,0-0.2,0-0.3,0h-0.1
					L17,7.9L17,7.9z"/>
			</g>
			<g>
				<path class="st0" d="M19.2,19.1c-0.1-0.1-0.3-0.3-0.4-0.4l0,0l-1.3,1.1l0,0c0.2,0.2,0.3,0.3,0.5,0.4l0,0L19.2,19.1L19.2,19.1z"
					/>
			</g>
			<g>
				<path class="st0" d="M29.2,17.1c0,0.2,0.1,0.4,0.1,0.6l0,0l10.8,0.1l0,0l0,0c0.1-0.4,0.2-0.8,0.3-1.2v-0.1L29.2,17.1L29.2,17.1z
					"/>
			</g>
			<g>
				<path class="st0" d="M29.4,18.5c0,0.2,0,0.4,0,0.5l0,0l9.6,1.7l0,0l0,0c0.2-0.4,0.4-0.7,0.5-1.1v-0.1L29.4,18.5L29.4,18.5z"/>
			</g>
			<g>
				<path class="st0" d="M29.2,19.8L29.2,19.8c-0.1,0.2-0.1,0.4-0.2,0.5l0,0l8.1,3l0,0l0,0c0.3-0.3,0.5-0.6,0.8-0.9v-0.1L29.2,19.8
					L29.2,19.8z"/>
			</g>
			<g>
				<path class="st0" d="M28.7,20.9L28.7,20.9c-0.1,0.1-0.2,0.2-0.3,0.3l0,0l6.3,4l0,0l0,0c0.3-0.2,0.7-0.4,1-0.6h0.1L28.7,20.9
					L28.7,20.9z"/>
			</g>
			<g>
				<path class="st0" d="M27.1,12.9L27.1,12.9c0.2,0.2,0.3,0.4,0.4,0.5l0,0L39.9,8l0,0l0,0c-0.1-0.4-0.2-0.8-0.4-1.2V6.7L27.1,12.9
					L27.1,12.9z"/>
			</g>
			<g>
				<path class="st0" d="M28,21.6L28,21.6c-0.1,0.1-0.2,0.1-0.3,0.2h-0.1l4.3,4.3l0,0l0,0c0.2,0,0.3,0,0.5-0.1
					c0.2,0,0.4-0.1,0.6-0.1h0.1L28,21.6L28,21.6z"/>
			</g>
			<g>
				<path class="st0" d="M40.7,13.2l-12,2.4v0.1c0.1,0.2,0.2,0.4,0.2,0.6l0,0l11.7-1.7l0,0l0,0C40.7,14.1,40.7,13.7,40.7,13.2
					L40.7,13.2z"/>
			</g>
			<g>
				<path class="st0" d="M28,14.3c0.1,0.2,0.2,0.4,0.3,0.5l0,0l12.3-3.6l0,0l0,0c0-0.4-0.1-0.8-0.2-1.2V9.9L28,14.3L28,14.3z"/>
			</g>
			<g>
				<path class="st0" d="M21.4,20.8c-0.1-0.1-0.3-0.2-0.4-0.3l0,0L20,22l0,0c0.2,0.1,0.3,0.2,0.5,0.4l0,0L21.4,20.8L21.4,20.8z"/>
			</g>
			<g>
				<path class="st0" d="M23.3,21.7L23.3,21.7l-0.6,2l0,0l0,0c0.2,0.1,0.3,0.2,0.5,0.3h0.1l0.4-2.2l0,0
					C23.5,21.8,23.4,21.7,23.3,21.7z"/>
			</g>
			<g>
				<path class="st0" d="M22.2,21.2L22.2,21.2l-0.8,1.7l0,0c0.2,0.1,0.3,0.2,0.5,0.3l0,0l0.7-1.8l0,0C22.4,21.3,22.3,21.3,22.2,21.2
					z"/>
			</g>
			<g>
				<path class="st0" d="M20.3,20c-0.1-0.1-0.3-0.2-0.4-0.3l0,0L18.7,21l0,0c0.2,0.1,0.3,0.3,0.5,0.4l0,0L20.3,20L20.3,20z"/>
			</g>
			<g>
				<path class="st0" d="M25.6,22.2c-0.1,0-0.2,0-0.3,0h-0.1l0.3,2.8l0,0c0.2,0.1,0.4,0.1,0.6,0.2h0.1L25.6,22.2L25.6,22.2z"/>
			</g>
			<g>
				<path class="st0" d="M26.4,22.2L26.4,22.2c-0.1,0-0.2,0-0.3,0H26l1.2,3.3l0,0c0.2,0.1,0.5,0.1,0.7,0.2H28L26.4,22.2L26.4,22.2z"
					/>
			</g>
			<g>
				<path class="st0" d="M24.3,22L24.3,22l-0.2,2.3l0,0l0,0c0.2,0.1,0.4,0.2,0.5,0.2h0.1v-2.6l0,0C24.6,22.1,24.4,22,24.3,22z"/>
			</g>
			<g>
				<path class="st0" d="M27.2,22L27.2,22c-0.1,0-0.2,0.1-0.3,0.1h-0.1l2.4,3.8l0,0l0,0c0.2,0,0.5,0.1,0.7,0.1c0.1,0,0.2,0,0.3,0
					h0.1L27.2,22L27.2,22z"/>
			</g>
			<g>
				<polygon class="st0" points="38.4,4.8 38.7,4.6 39.4,3.4 37.9,3.4 26.2,11.9 18.2,17.2 5.6,25.1 5.6,25.1 5.6,25.1 4.8,26.5 
					6.3,26.4 18.7,17.5 25.6,12.8 26.4,12.3 				"/>
			</g>
		</g>
	</g>
</g>
</svg>
