<svg xmlns="http://www.w3.org/2000/svg" width="81" height="56" viewBox="0 0 81 56" fill="none"><path d="M20.7513 15.7471C20.6072 15.7496 20.4641 15.7237 20.33 15.6709C20.1959 15.6181 20.0735 15.5394 19.9699 15.4393C19.7605 15.2371 19.64 14.9601 19.6349 14.6691C19.6298 14.3781 19.7406 14.097 19.9427 13.8876C20.1449 13.6782 20.4219 13.5578 20.7129 13.5527C26.0966 13.4925 31.4686 13.0378 36.7857 12.1921C36.8802 12.1724 36.9769 12.1658 37.0732 12.1724C38.406 12.2429 39.699 12.6506 40.8311 13.3574C41.018 13.4932 41.1573 13.6846 41.2291 13.9042C41.3009 14.1238 41.3015 14.3605 41.2308 14.5805C41.1602 14.8005 41.0219 14.9926 40.8356 15.1294C40.6494 15.2661 40.4247 15.3406 40.1936 15.3422C39.9352 15.3421 39.6847 15.2535 39.4837 15.0909C38.7441 14.667 37.9157 14.4217 37.0644 14.3745C31.6761 15.2211 26.2339 15.6798 20.7799 15.7471H20.7513Z" fill="#C4C4C4" stroke="#C4C4C4" stroke-width="0.5"></path><path d="M60.8886 41.849C59.9525 41.8502 59.0401 41.5544 58.2828 41.0042L58.0469 40.8407C58.0162 40.8199 57.9646 40.7782 57.9163 40.731L45.0012 31.4301C44.8807 31.3478 44.7777 31.2422 44.6984 31.1196C44.6192 30.9971 44.5651 30.8599 44.5396 30.7162C44.514 30.5724 44.5173 30.425 44.5494 30.2826C44.5815 30.1402 44.6417 30.0056 44.7265 29.8868C44.8112 29.7679 44.9188 29.6672 45.043 29.5904C45.1672 29.5137 45.3055 29.4625 45.4497 29.4399C45.5939 29.4173 45.7412 29.4236 45.883 29.4587C46.0247 29.4937 46.158 29.5566 46.2751 29.6438L47.1528 30.2692L59.2384 38.9843C59.2746 39.0102 59.309 39.0384 59.3416 39.0687L59.5511 39.2147C60.0271 39.5558 60.6157 39.7012 61.1957 39.621C61.7757 39.5407 62.3028 39.241 62.6683 38.7835C62.8925 38.5005 63.0453 38.1678 63.1138 37.8134C63.1824 37.4589 63.1647 37.0932 63.0622 36.7471C62.9389 36.311 62.6841 35.9236 62.3325 35.6378L45.0583 21.5641C38.4433 25.0751 33.7572 23.2691 31.52 21.8395C31.1503 21.5988 30.8501 21.2655 30.6494 20.8726C30.4487 20.4798 30.3544 20.0412 30.3761 19.6006C30.3977 19.16 30.5345 18.7328 30.7728 18.3615C31.011 17.9903 31.3424 17.6879 31.7339 17.4847L41.6219 12.2335C42.253 11.9034 42.9432 11.7014 43.6528 11.6392C44.3623 11.5771 45.0772 11.656 45.7561 11.8714L51.6052 13.7696C53.3273 14.336 55.195 14.2687 56.8718 13.5798L59.4195 12.5364C59.5528 12.4817 59.6956 12.4538 59.8398 12.4543C59.9839 12.4548 60.1265 12.4837 60.2595 12.5393C60.3924 12.595 60.5131 12.6762 60.6147 12.7785C60.7162 12.8808 60.7966 13.0021 60.8513 13.1354C60.906 13.2688 60.9339 13.4116 60.9334 13.5557C60.9328 13.6998 60.904 13.8425 60.8483 13.9754C60.7927 14.1084 60.7114 14.2291 60.6092 14.3306C60.5069 14.4322 60.3856 14.5126 60.2522 14.5673L57.7068 15.6096C55.5476 16.4984 53.1417 16.5855 50.9239 15.8554L45.0802 13.9583C44.68 13.8326 44.2588 13.7872 43.841 13.8249C43.4231 13.8626 43.0169 13.9825 42.6456 14.1778L32.7554 19.43C32.7004 19.456 32.6536 19.4967 32.6203 19.5476C32.587 19.5986 32.5684 19.6577 32.5667 19.7186C32.5622 19.7736 32.5729 19.8289 32.5976 19.8782C32.6224 19.9276 32.6603 19.9691 32.7072 19.9984C35.0113 21.4708 38.9667 22.5505 44.6293 19.2973C44.8219 19.1866 45.0435 19.137 45.2649 19.1551C45.4863 19.1731 45.697 19.2579 45.8691 19.3982L63.7095 33.9361C64.4091 34.5004 64.9179 35.2667 65.1666 36.1304C65.3636 36.8103 65.3968 37.5272 65.2633 38.2224C65.1298 38.9176 64.8334 39.5712 64.3985 40.1297C63.9843 40.666 63.4523 41.0999 62.8438 41.398C62.2352 41.6961 61.5663 41.8504 60.8886 41.849Z" fill="#C4C4C4" stroke="#C4C4C4" stroke-width="0.5"></path><path d="M56.3459 46.9351C55.4161 46.9361 54.5091 46.6473 53.7511 46.1089L41.8904 37.6935C41.6586 37.523 41.5031 37.2683 41.4573 36.9842C41.4116 36.7002 41.4792 36.4095 41.6457 36.1748C41.8121 35.9401 42.0641 35.7803 42.3473 35.7296C42.6306 35.6789 42.9223 35.7415 43.1599 35.9039L55.0205 44.3183C55.5182 44.6433 56.1221 44.7635 56.7063 44.6537C57.2904 44.5439 57.8095 44.2126 58.1551 43.729C58.5007 43.2454 58.6461 42.647 58.5608 42.0588C58.4756 41.4706 58.1663 40.9381 57.6977 40.5725L45.8765 32.0528C45.6586 31.8765 45.5164 31.6236 45.4791 31.3458C45.4418 31.0681 45.5122 30.7866 45.6759 30.559C45.8395 30.3315 46.084 30.1753 46.3592 30.1223C46.6344 30.0694 46.9194 30.1237 47.1558 30.2742L58.9803 38.795C59.75 39.3523 60.3235 40.1389 60.6185 41.0422C60.9135 41.9455 60.9149 42.919 60.6225 43.8231C60.3301 44.7272 59.7589 45.5155 58.9908 46.075C58.2228 46.6344 57.2973 46.9363 56.347 46.9373L56.3459 46.9351Z" fill="#C4C4C4" stroke="#C4C4C4" stroke-width="0.5"></path><path d="M51.2274 51.3306C50.3442 51.3304 49.4823 51.0597 48.7576 50.5549L38.1291 43.1927C37.8897 43.027 37.726 42.773 37.6739 42.4866C37.6219 42.2002 37.6857 41.9048 37.8515 41.6655C38.0172 41.4261 38.2712 41.2624 38.5576 41.2103C38.844 41.1583 39.1394 41.2221 39.3788 41.3879L50.0073 48.75C50.2407 48.9115 50.5036 49.0254 50.781 49.0852C51.0584 49.145 51.3449 49.1495 51.6241 49.0986C51.9033 49.0476 52.1697 48.9422 52.4081 48.7882C52.6465 48.6343 52.8523 48.4349 53.0136 48.2014C53.3347 47.7333 53.4594 47.158 53.3609 46.599C53.2625 46.0399 52.9487 45.5418 52.487 45.2116L41.91 37.709C41.7897 37.6267 41.6871 37.5214 41.608 37.3991C41.5288 37.2767 41.4749 37.1399 41.4492 36.9965C41.4236 36.8531 41.4267 36.706 41.4585 36.5638C41.4903 36.4217 41.5501 36.2872 41.6344 36.1684C41.7187 36.0496 41.8258 35.9488 41.9495 35.8718C42.0731 35.7948 42.2109 35.7432 42.3547 35.72C42.4985 35.6969 42.6455 35.7025 42.7871 35.7368C42.9287 35.771 43.0621 35.8331 43.1794 35.9194L53.7564 43.4221C54.6874 44.0874 55.3203 45.0914 55.5191 46.2183C55.7179 47.3453 55.4667 48.5052 54.8196 49.449C54.4962 49.9206 54.0826 50.3235 53.6025 50.6342C53.1225 50.945 52.5855 51.1574 52.0228 51.2593C51.7604 51.3072 51.4941 51.3311 51.2274 51.3306Z" fill="#C4C4C4" stroke="#C4C4C4" stroke-width="0.5"></path><path d="M44.9585 54.9385C44.1908 54.9348 43.4376 54.7297 42.7739 54.3439L36.8743 50.9426C36.6244 50.796 36.4425 50.5566 36.3685 50.2765C36.2944 49.9964 36.3342 49.6983 36.479 49.4474C36.6239 49.1965 36.8621 49.0131 37.1418 48.9372C37.4214 48.8612 37.7197 48.899 37.9715 49.0422L43.87 52.4435C44.3687 52.725 44.9576 52.8004 45.5111 52.6536C46.0646 52.5068 46.5388 52.1495 46.8325 51.6579C47.1115 51.1867 47.2002 50.6268 47.0805 50.0924C46.9608 49.558 46.6417 49.0894 46.1884 48.7822L38.6507 43.5606C38.5322 43.4786 38.4311 43.374 38.3531 43.2528C38.2751 43.1317 38.2217 42.9964 38.196 42.8546C38.1702 42.7129 38.1727 42.5674 38.2032 42.4266C38.2337 42.2858 38.2916 42.1523 38.3736 42.0339C38.4557 41.9154 38.5603 41.8143 38.6814 41.7363C38.8026 41.6583 38.9379 41.6049 39.0796 41.5792C39.2214 41.5534 39.3669 41.5559 39.5077 41.5864C39.6485 41.6169 39.782 41.6748 39.9004 41.7568L47.437 46.9773C48.2021 47.507 48.7781 48.2671 49.0811 49.1469C49.3841 50.0267 49.3983 50.9803 49.1216 51.8688C48.8449 52.7572 48.2917 53.5341 47.5427 54.0863C46.7937 54.6384 45.8879 54.937 44.9574 54.9385H44.9585Z" fill="#C4C4C4" stroke="#C4C4C4" stroke-width="0.5"></path><path d="M32.5327 54.2837C31.6351 54.2851 30.7584 54.0126 30.0198 53.5025C29.2811 52.9925 28.7157 52.2693 28.3989 51.4294C28.0822 50.5895 28.0293 49.673 28.2472 48.8022C28.4651 47.9314 28.9435 47.1479 29.6185 46.5562L32.5491 43.9888C32.9846 43.6064 33.4912 43.3136 34.0398 43.127C34.5885 42.9405 35.1685 42.8638 35.7468 42.9014C36.3251 42.939 36.8903 43.0901 37.4102 43.3461C37.9301 43.6022 38.3945 43.9581 38.7768 44.3936C39.1591 44.8292 39.4518 45.3358 39.6383 45.8845C39.8248 46.4332 39.9014 47.0132 39.8637 47.5915C39.826 48.1698 39.6747 48.735 39.4186 49.2549C39.1625 49.7747 38.8064 50.239 38.3709 50.6213L35.4402 53.1942C34.6359 53.899 33.6021 54.2864 32.5327 54.2837ZM35.4589 45.0859C34.9208 45.0846 34.4008 45.2796 33.9963 45.6345L31.0646 48.2053C30.8456 48.3974 30.6666 48.6308 30.5378 48.8921C30.409 49.1535 30.3329 49.4376 30.3139 49.7283C30.2949 50.019 30.3333 50.3107 30.427 50.5865C30.5207 50.8624 30.6679 51.1171 30.86 51.3361C31.248 51.7784 31.7959 52.0485 32.3831 52.0869C32.6738 52.1059 32.9654 52.0674 33.2413 51.9737C33.5171 51.88 33.7718 51.7329 33.9909 51.5408L36.9215 48.9678C37.2595 48.6703 37.4989 48.2768 37.6079 47.8398C37.7168 47.4028 37.6902 46.943 37.5314 46.5216C37.3726 46.1001 37.0892 45.737 36.719 45.4806C36.3488 45.2241 35.9093 45.0865 35.4589 45.0859Z" fill="#C4C4C4" stroke="#C4C4C4" stroke-width="0.5"></path><path d="M25.8886 51.2945C25.7909 51.2945 25.6933 51.2945 25.5956 51.2857C25.017 51.2495 24.4512 51.099 23.9311 50.8428C23.4109 50.5867 22.9467 50.2301 22.5652 49.7935C22.1776 49.3579 21.8799 48.8501 21.6891 48.2991C21.4983 47.7482 21.4182 47.1649 21.4534 46.583C21.4885 46.001 21.6383 45.4316 21.894 44.9077C22.1498 44.3837 22.5065 43.9154 22.9437 43.5296L27.8394 39.2319C28.2749 38.8496 28.7814 38.5568 29.3301 38.3702C29.8787 38.1836 30.4588 38.107 31.0371 38.1445C31.6154 38.1821 32.1806 38.3333 32.7005 38.5893C33.2204 38.8454 33.6847 39.2013 34.0671 39.6368L33.2738 40.3971L34.0978 39.673C34.4802 40.1084 34.7732 40.6149 34.9598 41.1636C35.1465 41.7123 35.2232 42.2924 35.1856 42.8707C35.148 43.449 34.9968 44.0143 34.7407 44.5342C34.4846 45.0541 34.1285 45.5184 33.6929 45.9007L28.7928 50.1984C27.9911 50.9062 26.958 51.2961 25.8886 51.2945ZM30.7436 40.3291C30.2062 40.3276 29.6868 40.5228 29.2833 40.8777L24.3876 45.1754C24.0598 45.4714 23.8263 45.8571 23.7161 46.2848C23.606 46.7124 23.624 47.163 23.7679 47.5805C23.9119 47.9979 24.1754 48.3639 24.5257 48.6327C24.8761 48.9015 25.2977 49.0614 25.7382 49.0924C26.0292 49.1124 26.3212 49.0741 26.5972 48.9799C26.8732 48.8857 27.1276 48.7375 27.3456 48.5438L32.2413 44.2461C32.4604 44.0539 32.6394 43.8205 32.7682 43.5591C32.8971 43.2977 32.9731 43.0135 32.9921 42.7227C33.011 42.4319 32.9725 42.1402 32.8787 41.8643C32.7849 41.5884 32.6377 41.3337 32.4454 41.1147L32.4136 41.0785C32.2221 40.8603 31.9894 40.6822 31.7287 40.5543C31.4681 40.4264 31.1848 40.3514 30.8951 40.3335C30.8435 40.3313 30.7919 40.3302 30.7426 40.3302L30.7436 40.3291Z" fill="#C4C4C4" stroke="#C4C4C4" stroke-width="0.5"></path><path d="M20.3521 47.2669C20.2555 47.2669 20.1579 47.2669 20.0591 47.2582C19.4805 47.2219 18.9147 47.0714 18.3946 46.8153C17.8744 46.5592 17.4102 46.2025 17.0287 45.766L16.9091 45.6233C16.1379 44.7436 15.7475 43.5937 15.8239 42.4263C15.9002 41.2589 16.437 40.1696 17.3161 39.3978L22.9919 34.4155C23.4274 34.033 23.9339 33.7401 24.4826 33.5534C25.0312 33.3668 25.6113 33.2901 26.1897 33.3277C26.768 33.3653 27.3333 33.5164 27.8531 33.7725C28.373 34.0287 28.8374 34.3847 29.2196 34.8203L29.3436 34.9619C30.1151 35.8414 30.5056 36.9914 30.4293 38.1589C30.3529 39.3264 29.816 40.4157 28.9365 41.1874L23.2607 46.1697C22.458 46.8788 21.4232 47.2691 20.3521 47.2669ZM25.8962 35.5138C25.3588 35.5124 24.8394 35.7075 24.4358 36.0624L18.7601 41.0447C18.3173 41.4331 18.047 41.9814 18.0086 42.569C17.9701 43.1567 18.1666 43.7355 18.5549 44.1783L18.6789 44.3199C19.0674 44.7614 19.6153 45.0306 20.2022 45.0685C20.7892 45.1063 21.3671 44.9097 21.8092 44.5217L27.485 39.5394C27.704 39.3472 27.8831 39.1137 28.0119 38.8524C28.1407 38.591 28.2167 38.3067 28.2357 38.016C28.2546 37.7252 28.2161 37.4335 28.1223 37.1576C28.0285 36.8817 27.8813 36.627 27.689 36.408L27.5672 36.2686C27.3756 36.0495 27.1425 35.8706 26.8813 35.7421C26.62 35.6137 26.336 35.5383 26.0454 35.5203C25.9939 35.516 25.9456 35.5138 25.8962 35.5138Z" fill="#C4C4C4" stroke="#C4C4C4" stroke-width="0.5"></path><path d="M15.582 42.383C15.4854 42.383 15.3867 42.383 15.289 42.3731C14.4126 42.3179 13.5722 42.0041 12.874 41.4713C12.1759 40.9386 11.6514 40.2108 11.3667 39.38C11.0821 38.5493 11.0501 37.6527 11.2749 36.8038C11.4996 35.9549 11.971 35.1916 12.6294 34.6105L16.1833 31.4912C16.6187 31.1087 17.1252 30.8158 17.6739 30.6291C18.2226 30.4425 18.8026 30.3657 19.381 30.4033C19.9593 30.4409 20.5246 30.5921 21.0445 30.8482C21.5643 31.1044 22.0287 31.4604 22.4109 31.896L22.4493 31.9399C22.8318 32.3753 23.1247 32.8819 23.3114 33.4305C23.498 33.9792 23.5748 34.5593 23.5372 35.1376C23.4996 35.716 23.3484 36.2812 23.0923 36.8011C22.8361 37.321 22.4801 37.7853 22.0445 38.1676L18.4907 41.2869C17.6878 41.9957 16.653 42.3856 15.582 42.383ZM19.093 32.5884C18.5556 32.587 18.0362 32.7821 17.6326 33.137L14.0788 36.2563C13.8598 36.4485 13.6807 36.6819 13.5519 36.9433C13.4231 37.2047 13.347 37.4889 13.3281 37.7797C13.3091 38.0705 13.3477 38.3622 13.4415 38.6381C13.5353 38.914 13.6825 39.1687 13.8748 39.3877C14.0655 39.6136 14.2992 39.7994 14.5622 39.9343C14.8253 40.0692 15.1126 40.1505 15.4073 40.1736C15.7021 40.1966 15.9984 40.161 16.2793 40.0686C16.5602 39.9763 16.8199 39.8291 17.0435 39.6356L20.5973 36.5163C20.8163 36.3241 20.9954 36.0907 21.1242 35.8293C21.253 35.5679 21.3291 35.2837 21.348 34.9929C21.367 34.7021 21.3284 34.4104 21.2346 34.1345C21.1408 33.8586 20.9936 33.6039 20.8013 33.3849L20.7629 33.341C20.5713 33.1216 20.338 32.9424 20.0766 32.8137C19.8152 32.6851 19.5308 32.6096 19.24 32.5916C19.1863 32.5905 19.1369 32.5884 19.0875 32.5884H19.093Z" fill="#C4C4C4" stroke="#C4C4C4" stroke-width="0.5"></path><path d="M13.5924 36.3212C13.3549 36.3216 13.1237 36.2446 12.934 36.1017L9.18493 33.249C9.07024 33.1618 8.97385 33.0528 8.90128 32.9283C8.8287 32.8038 8.78136 32.6662 8.76195 32.5234C8.74254 32.3807 8.75145 32.2354 8.78816 32.0961C8.82487 31.9567 8.88867 31.826 8.97592 31.7113C9.15211 31.4797 9.41311 31.3275 9.70149 31.2883C9.84428 31.2689 9.98949 31.2778 10.1288 31.3145C10.2682 31.3512 10.3989 31.415 10.5136 31.5023L14.2628 34.355C14.4474 34.4935 14.5837 34.6867 14.6522 34.9072C14.7207 35.1276 14.718 35.3641 14.6443 35.5828C14.5707 35.8016 14.4299 35.9916 14.242 36.1257C14.0541 36.2599 13.8287 36.3313 13.5979 36.3299L13.5924 36.3212Z" fill="#C4C4C4" stroke="#C4C4C4" stroke-width="0.5"></path><path d="M64.1126 37.5372C63.8956 37.5372 63.6835 37.4728 63.5031 37.3522C63.3228 37.2317 63.1822 37.0603 63.0991 36.8599C63.0161 36.6594 62.9944 36.4388 63.0367 36.226C63.079 36.0132 63.1835 35.8178 63.3369 35.6643L69.4932 29.5057C69.7002 29.3059 69.9773 29.1953 70.265 29.1978C70.5527 29.2003 70.8279 29.3157 71.0313 29.5191C71.2347 29.7225 71.3501 29.9977 71.3526 30.2854C71.3551 30.5731 71.2445 30.8502 71.0447 31.0572L64.8883 37.2135C64.7866 37.3158 64.6658 37.3971 64.5327 37.4526C64.3996 37.5082 64.2568 37.5369 64.1126 37.5372Z" fill="#C4C4C4" stroke="#C4C4C4" stroke-width="0.5"></path><path d="M72.5066 35.2604C72.3189 35.2606 72.1344 35.2127 71.9705 35.1213C71.8067 35.0298 71.669 34.8979 71.5707 34.7381L58.1739 12.9478C58.0324 12.7173 57.981 12.4426 58.0296 12.1765C58.0782 11.9104 58.2234 11.6717 58.4373 11.5061L71.7056 1.22974C71.8513 1.11694 72.023 1.04263 72.2049 1.01365C72.3868 0.984682 72.5731 1.00198 72.7466 1.06396C72.9201 1.12595 73.0752 1.23061 73.1976 1.36831C73.3199 1.506 73.4057 1.6723 73.4469 1.85185L79.9719 30.3208C80.026 30.5525 80.0034 30.7954 79.9074 31.0131C79.8115 31.2308 79.6473 31.4114 79.4398 31.5277L73.042 35.1232C72.8783 35.2141 72.6939 35.2614 72.5066 35.2604ZM60.5592 12.6362L72.8873 32.6874L77.6502 30.0103L71.6925 4.01552L60.5592 12.6362Z" fill="#C4C4C4" stroke="#C4C4C4" stroke-width="0.5"></path><path d="M8.49521 35.6499C8.30729 35.6498 8.12254 35.6014 7.95868 35.5095L1.56093 31.9194C1.35337 31.8031 1.18924 31.6226 1.09325 31.4049C0.997272 31.1872 0.974648 30.9442 1.02879 30.7125L7.55491 2.24687C7.5961 2.06732 7.68185 1.90102 7.80423 1.76333C7.92661 1.62563 8.08169 1.52097 8.25517 1.45898C8.42865 1.397 8.61495 1.3797 8.79688 1.40867C8.97881 1.43765 9.15051 1.51196 9.29616 1.62476L22.5656 11.9C22.7795 12.0656 22.9247 12.3044 22.9733 12.5704C23.0219 12.8365 22.9705 13.1112 22.829 13.3417L9.43111 35.132C9.33226 35.291 9.19436 35.4221 9.03054 35.5127C8.86672 35.6034 8.68243 35.6506 8.49521 35.6499ZM3.35155 30.4075L8.11448 33.0836L20.4426 13.0312L9.30933 4.41054L3.35155 30.4075Z" fill="#C4C4C4" stroke="#C4C4C4" stroke-width="0.5"></path></svg>