<svg xmlns="http://www.w3.org/2000/svg" width="25" height="25" viewBox="0 0 46 46" fill="none">
  <path fill-rule="evenodd" clip-rule="evenodd" d="M10.8675 0C4.86555 0 0 4.94278 0 11.04V34.96C0 41.0572 4.86555 46 10.8675 46H34.4137C40.4157 46 45.2812 41.0572 45.2812 34.96V11.04C45.2812 4.94278 40.4157 0 34.4137 0H10.8675ZM36.225 12.88C38.2257 12.88 39.8475 11.2324 39.8475 9.2C39.8475 7.16759 38.2257 5.52 36.225 5.52C34.2243 5.52 32.6025 7.16759 32.6025 9.2C32.6025 11.2324 34.2243 12.88 36.225 12.88ZM22.6406 34.96C29.1427 34.96 34.4137 29.6053 34.4137 23C34.4137 16.3947 29.1427 11.04 22.6406 11.04C16.1385 11.04 10.8675 16.3947 10.8675 23C10.8675 29.6053 16.1385 34.96 22.6406 34.96Z" fill="white"/>
</svg>