<svg xmlns="http://www.w3.org/2000/svg" width="73" height="34" viewBox="0 0 73 34" fill="none"><g clip-path="url(#clip0)"><path d="M67.8292 4.79772C61.0361 -1.70228 50.0861 -1.60228 43.4958 5.09772C41.2653 7.29772 39.7444 10.0977 39.0347 12.9977L2.02778 13.4977C1.52083 13.4977 1.01389 13.6977 0.608333 14.0977C0.202778 14.4977 0 14.9977 0 15.4977C0 15.9977 0.202778 16.5977 0.608333 16.8977C1.01389 17.2977 1.52083 17.4977 2.02778 17.4977L7.19861 17.3977L7.3 26.6977C7.3 27.1977 7.50278 27.6977 7.90833 28.0977C8.61806 28.7977 10.0375 28.7977 10.7472 28.0977C11.1528 27.6977 11.3556 27.1977 11.3556 26.6977L11.2542 17.3977H14.3972L14.4986 23.8977C14.4986 24.3977 14.7014 24.8977 15.1069 25.2977C15.5125 25.6977 16.0194 25.8977 16.5264 25.8977C17.6417 25.8977 18.6556 24.9977 18.6556 23.8977L18.5542 17.3977H21.6972L21.7986 26.6977C21.7986 27.1977 22.0014 27.6977 22.4069 28.1977C22.8125 28.4977 23.3194 28.6977 23.8264 28.6977C24.9417 28.6977 25.8542 27.7977 25.8542 26.6977L25.7528 17.3977L38.7306 17.2977C38.7306 19.5977 39.2375 21.7977 40.0486 23.7977C40.9611 25.7977 42.1778 27.6977 43.9014 29.2977C47.2472 32.4977 51.6069 34.0977 55.9667 34.0977C60.4278 34.0977 64.8889 32.3977 68.3361 28.9977C74.825 22.1977 74.6222 11.3977 67.8292 4.79772ZM65.2944 26.0977C60.225 31.1977 51.8097 31.2977 46.6389 26.2977C41.4681 21.2977 41.3667 12.9977 46.4361 7.89772C51.5056 2.79772 59.9208 2.69772 65.0917 7.69772C70.2625 12.6977 70.3639 20.9977 65.2944 26.0977Z" fill="#C4C4C4"></path></g><defs><clipPath id="clip0"><rect width="73" height="34" fill="white"></rect></clipPath></defs></svg>