<svg xmlns="http://www.w3.org/2000/svg" width="65" height="30" viewBox="0 0 65 30" fill="none"><path d="M60.3405 4.22373C54.2974 -1.49455 44.5564 -1.40658 38.6937 4.48765C36.7094 6.42307 35.3565 8.88633 34.7251 11.4376L1.8039 11.8774C1.35293 11.8774 0.901951 12.0534 0.541171 12.4053C0.18039 12.7572 0 13.197 0 13.6369C0 14.0768 0.18039 14.6046 0.541171 14.8685C0.901951 15.2204 1.35293 15.3964 1.8039 15.3964L6.40385 15.3084L6.49405 23.49C6.49405 23.9298 6.67444 24.3697 7.03522 24.7216C7.66658 25.3374 8.92931 25.3374 9.56068 24.7216C9.92146 24.3697 10.1018 23.9298 10.1018 23.49L10.0117 15.3084H12.8077L12.8979 21.0267C12.8979 21.4666 13.0783 21.9064 13.4391 22.2583C13.7998 22.6102 14.2508 22.7862 14.7018 22.7862C15.6939 22.7862 16.5959 21.9944 16.5959 21.0267L16.5057 15.3084H19.3017L19.3919 23.49C19.3919 23.9298 19.5723 24.3697 19.9331 24.8096C20.2939 25.0735 20.7449 25.2494 21.1958 25.2494C22.188 25.2494 22.9997 24.4577 22.9997 23.49L22.9096 15.3084L34.4545 15.2204C34.4545 17.2438 34.9055 19.1792 35.6271 20.9387C36.4388 22.6982 37.5212 24.3697 39.0545 25.7773C42.0309 28.5924 45.9093 30 49.7877 30C53.7563 30 57.7249 28.5044 60.7915 25.5133C66.564 19.5311 66.3836 10.03 60.3405 4.22373ZM58.0856 22.9621C53.5759 27.4488 46.0897 27.5367 41.4897 23.1381C36.8898 18.7394 36.7996 11.4376 41.3093 6.95092C45.8191 2.46426 53.3053 2.37629 57.9052 6.77497C62.5052 11.1736 62.5954 18.4755 58.0856 22.9621Z" fill="#1A1A1A"></path></svg>