<svg xmlns="http://www.w3.org/2000/svg" width="40" height="40" viewBox="0 0 40 40" fill="none"><path d="M31.8919 35.5243H4.72975C4.58639 35.5243 4.4489 35.4674 4.34753 35.366C4.24616 35.2646 4.18921 35.1271 4.18921 34.9838V1.6216C4.18921 1.47824 4.24616 1.34075 4.34753 1.23938C4.4489 1.138 4.58639 1.08105 4.72975 1.08105H31.8919C32.0353 1.08105 32.1728 1.138 32.2741 1.23938C32.3755 1.34075 32.4325 1.47824 32.4325 1.6216V34.9838C32.4325 35.1271 32.3755 35.2646 32.2741 35.366C32.1728 35.4674 32.0353 35.5243 31.8919 35.5243ZM5.28651 34.4432H31.3514V2.16214H5.27029L5.28651 34.4432Z" fill="#C4C4C4"></path><path d="M35.2703 38.9188H8.10817C7.96481 38.9188 7.82732 38.8619 7.72595 38.7605C7.62458 38.6591 7.56763 38.5217 7.56763 38.3783V34.9837C7.56763 34.8403 7.62458 34.7028 7.72595 34.6015C7.82732 34.5001 7.96481 34.4432 8.10817 34.4432C8.25153 34.4432 8.38902 34.5001 8.49039 34.6015C8.59176 34.7028 8.64871 34.8403 8.64871 34.9837V37.8377H34.7298V5.55667H31.892C31.7486 5.55667 31.6111 5.49972 31.5097 5.39835C31.4084 5.29698 31.3514 5.15949 31.3514 5.01613C31.3514 4.87277 31.4084 4.73528 31.5097 4.63391C31.6111 4.53254 31.7486 4.47559 31.892 4.47559H35.2865C35.4299 4.47559 35.5674 4.53254 35.6688 4.63391C35.7701 4.73528 35.8271 4.87277 35.8271 5.01613V38.3783C35.8271 38.4507 35.8126 38.5223 35.7844 38.589C35.7563 38.6556 35.715 38.7159 35.6631 38.7664C35.6111 38.8168 35.5496 38.8562 35.4822 38.8824C35.4147 38.9086 35.3427 38.921 35.2703 38.9188Z" fill="#C4C4C4"></path><path d="M28.108 9.11331H15.135C14.9917 9.11331 14.8542 9.05636 14.7528 8.95499C14.6514 8.85362 14.5945 8.71613 14.5945 8.57277C14.5945 8.42941 14.6514 8.29192 14.7528 8.19055C14.8542 8.08918 14.9917 8.03223 15.135 8.03223H28.108C28.2513 8.03223 28.3888 8.08918 28.4902 8.19055C28.5916 8.29192 28.6485 8.42941 28.6485 8.57277C28.6485 8.71613 28.5916 8.85362 28.4902 8.95499C28.3888 9.05636 28.2513 9.11331 28.108 9.11331Z" fill="#C4C4C4"></path><path d="M28.108 15.6001H15.135C14.9917 15.6001 14.8542 15.5432 14.7528 15.4418C14.6514 15.3404 14.5945 15.2029 14.5945 15.0596C14.5945 14.9162 14.6514 14.7787 14.7528 14.6774C14.8542 14.576 14.9917 14.519 15.135 14.519H28.108C28.2513 14.519 28.3888 14.576 28.4902 14.6774C28.5916 14.7787 28.6485 14.9162 28.6485 15.0596C28.6485 15.2029 28.5916 15.3404 28.4902 15.4418C28.3888 15.5432 28.2513 15.6001 28.108 15.6001Z" fill="#C4C4C4"></path><path d="M28.108 22.0865H15.135C14.9917 22.0865 14.8542 22.0295 14.7528 21.9281C14.6514 21.8268 14.5945 21.6893 14.5945 21.5459C14.5945 21.4026 14.6514 21.2651 14.7528 21.1637C14.8542 21.0623 14.9917 21.0054 15.135 21.0054H28.108C28.2513 21.0054 28.3888 21.0623 28.4902 21.1637C28.5916 21.2651 28.6485 21.4026 28.6485 21.5459C28.6485 21.6893 28.5916 21.8268 28.4902 21.9281C28.3888 22.0295 28.2513 22.0865 28.108 22.0865Z" fill="#C4C4C4"></path><path d="M28.108 28.5728H15.135C14.9917 28.5728 14.8542 28.5158 14.7528 28.4145C14.6514 28.3131 14.5945 28.1756 14.5945 28.0322C14.5945 27.8889 14.6514 27.7514 14.7528 27.65C14.8542 27.5486 14.9917 27.4917 15.135 27.4917H28.108C28.2513 27.4917 28.3888 27.5486 28.4902 27.65C28.5916 27.7514 28.6485 27.8889 28.6485 28.0322C28.6485 28.1756 28.5916 28.3131 28.4902 28.4145C28.3888 28.5158 28.2513 28.5728 28.108 28.5728Z" fill="#C4C4C4"></path><path d="M9.22153 11.2163C9.07973 11.2157 8.94383 11.1594 8.84315 11.0595L7.56748 9.77303C7.47892 9.66962 7.43265 9.53661 7.4379 9.40057C7.44316 9.26453 7.49955 9.13548 7.59582 9.03921C7.69209 8.94294 7.82114 8.88655 7.95718 8.88129C8.09322 8.87604 8.22623 8.92231 8.32964 9.01087L9.23234 9.91357L12.735 6.41087C12.7853 6.3602 12.8451 6.31999 12.9109 6.29255C12.9768 6.26511 13.0475 6.25098 13.1188 6.25098C13.1902 6.25098 13.2608 6.26511 13.3267 6.29255C13.3926 6.31999 13.4524 6.3602 13.5026 6.41087C13.6033 6.51214 13.6598 6.64915 13.6598 6.79195C13.6598 6.93475 13.6033 7.07175 13.5026 7.17303L9.61613 11.0595C9.56434 11.1109 9.50268 11.1513 9.43486 11.1783C9.36705 11.2052 9.29448 11.2181 9.22153 11.2163Z" fill="#C4C4C4"></path><path d="M9.22166 17.6701C9.07985 17.6695 8.94396 17.6132 8.84328 17.5134L7.5676 16.2161C7.51102 16.1676 7.46506 16.108 7.43262 16.0409C7.40017 15.9739 7.38194 15.9008 7.37906 15.8264C7.37619 15.7519 7.38873 15.6777 7.41591 15.6083C7.44308 15.539 7.4843 15.476 7.53698 15.4233C7.58966 15.3706 7.65266 15.3294 7.72202 15.3022C7.79139 15.275 7.86562 15.2625 7.94007 15.2654C8.01451 15.2683 8.08755 15.2865 8.15462 15.3189C8.22168 15.3514 8.28131 15.3973 8.32977 15.4539L9.23247 16.3566L12.6865 12.9026C12.7368 12.8519 12.7966 12.8117 12.8624 12.7842C12.9283 12.7568 12.9989 12.7427 13.0703 12.7427C13.1417 12.7427 13.2123 12.7568 13.2782 12.7842C13.3441 12.8117 13.4038 12.8519 13.4541 12.9026C13.5548 13.0038 13.6113 13.1408 13.6113 13.2836C13.6113 13.4265 13.5548 13.5635 13.4541 13.6647L9.61625 17.5026C9.56538 17.5559 9.50414 17.5983 9.43628 17.6271C9.36842 17.656 9.29538 17.6706 9.22166 17.6701Z" fill="#C4C4C4"></path><path d="M9.22164 24.124C9.07983 24.1234 8.94394 24.0671 8.84326 23.9673L7.50272 22.6321C7.45232 22.5817 7.41234 22.5219 7.38506 22.4561C7.35779 22.3902 7.34375 22.3196 7.34375 22.2484C7.34375 22.1771 7.35779 22.1065 7.38506 22.0407C7.41234 21.9748 7.45232 21.915 7.50272 21.8646C7.55312 21.8142 7.61295 21.7742 7.6788 21.7469C7.74465 21.7196 7.81523 21.7056 7.8865 21.7056C7.95778 21.7056 8.02836 21.7196 8.09421 21.7469C8.16005 21.7742 8.21989 21.8142 8.27029 21.8646L9.22164 22.8213L12.4649 19.5781C12.5662 19.4774 12.7032 19.4209 12.846 19.4209C12.9888 19.4209 13.1258 19.4774 13.227 19.5781C13.2777 19.6283 13.3179 19.6881 13.3454 19.754C13.3728 19.8199 13.3869 19.8905 13.3869 19.9619C13.3869 20.0332 13.3728 20.1039 13.3454 20.1697C13.3179 20.2356 13.2777 20.2954 13.227 20.3457L9.59461 23.9781C9.49356 24.0727 9.36006 24.1249 9.22164 24.124Z" fill="#C4C4C4"></path><path d="M9.22153 30.5784C9.07973 30.5778 8.94383 30.5215 8.84315 30.4217L7.56748 29.1352C7.47892 29.0318 7.43265 28.8988 7.4379 28.7627C7.44316 28.6267 7.49955 28.4976 7.59582 28.4014C7.69209 28.3051 7.82114 28.2487 7.95718 28.2435C8.09322 28.2382 8.22623 28.2845 8.32964 28.373L9.23234 29.2757L12.2161 26.2919C12.3174 26.1913 12.4544 26.1348 12.5972 26.1348C12.74 26.1348 12.877 26.1913 12.9783 26.2919C13.029 26.3422 13.0692 26.402 13.0966 26.4679C13.1241 26.5337 13.1382 26.6044 13.1382 26.6757C13.1382 26.7471 13.1241 26.8177 13.0966 26.8836C13.0692 26.9495 13.029 27.0093 12.9783 27.0595L9.61613 30.4217C9.56434 30.4731 9.50268 30.5135 9.43486 30.5404C9.36705 30.5674 9.29448 30.5803 9.22153 30.5784Z" fill="#C4C4C4"></path></svg>