<svg version="1.1" id="Capa_1" xmlns="http://www.w3.org/2000/svg" xmlns:xlink="http://www.w3.org/1999/xlink" x="0px" y="0px" viewBox="0 0 14 18" style="enable-background:new 0 0 14 18;" xml:space="preserve">
                    <style type="text/css">
                        .st0 {
                            fill: #FFFFFF;
                        }
                    </style>
                    <path class="st0" d="M6.9,0C3.1,0,0,3.1,0,6.9c0,2.4,0.7,3.4,4.3,8.1c0.6,0.8,1.3,1.7,2.1,2.8C6.5,17.9,6.7,18,6.9,18
	c0.2,0,0.3-0.1,0.4-0.2c0.8-1.1,1.5-2,2.1-2.8c3.6-4.7,4.3-5.7,4.3-8.1C13.7,3.1,10.6,0,6.9,0z M8.6,14.4C8,15,7.5,15.8,6.9,16.6
	c-0.6-0.8-1.2-1.6-1.7-2.3C1.7,9.8,1.1,8.9,1.1,6.9c0-3.2,2.6-5.8,5.8-5.8c3.2,0,5.8,2.6,5.8,5.8C12.7,8.9,12,9.8,8.6,14.4z"></path>
                    <path class="st0" d="M6.9,3.2c-2,0-3.7,1.7-3.7,3.7s1.7,3.7,3.7,3.7s3.7-1.7,3.7-3.7S8.9,3.2,6.9,3.2z M6.9,9.5
	c-1.5,0-2.6-1.2-2.6-2.6c0-1.5,1.2-2.6,2.6-2.6c1.5,0,2.6,1.2,2.6,2.6C9.5,8.3,8.3,9.5,6.9,9.5z"></path>
                </svg>