<svg xmlns="http://www.w3.org/2000/svg" width="46" height="38" viewBox="0 0 46 38" fill="none"><path d="M28.6598 31.9786H17.3797C17.1947 31.9786 17.0173 31.9051 16.8864 31.7743C16.7556 31.6435 16.6821 31.466 16.6821 31.281C16.6821 31.096 16.7556 30.9186 16.8864 30.7878C17.0173 30.657 17.1947 30.5835 17.3797 30.5835H28.6598C28.8448 30.5835 29.0222 30.657 29.153 30.7878C29.2838 30.9186 29.3573 31.096 29.3573 31.281C29.3573 31.466 29.2838 31.6435 29.153 31.7743C29.0222 31.9051 28.8448 31.9786 28.6598 31.9786Z" fill="#C4C4C4"></path><path d="M6.9204 31.978H0.697551C0.512549 31.978 0.335124 31.9045 0.204308 31.7737C0.0734919 31.6429 0 31.4655 0 31.2805V23.3724C0 23.1874 0.0734919 23.0099 0.204308 22.8791C0.335124 22.7483 0.512549 22.6748 0.697551 22.6748H25.2967C25.4817 22.6748 25.6591 22.7483 25.7899 22.8791C25.9207 23.0099 25.9942 23.1874 25.9942 23.3724C25.9942 23.5574 25.9207 23.7348 25.7899 23.8656C25.6591 23.9964 25.4817 24.0699 25.2967 24.0699H1.3951V30.5829H6.9204C7.10541 30.5829 7.28283 30.6564 7.41365 30.7872C7.54446 30.9181 7.61795 31.0955 7.61795 31.2805C7.61795 31.4655 7.54446 31.6429 7.41365 31.7737C7.28283 31.9045 7.10541 31.978 6.9204 31.978Z" fill="#C4C4C4"></path><path d="M45.2578 31.9777H39.1193C38.9343 31.9777 38.7569 31.9042 38.6261 31.7734C38.4953 31.6426 38.4218 31.4651 38.4218 31.2801C38.4218 31.0951 38.4953 30.9177 38.6261 30.7869C38.7569 30.6561 38.9343 30.5826 39.1193 30.5826H44.5644L44.6028 22.86C44.6013 22.2826 44.3711 21.7293 43.9625 21.3212C43.554 20.9132 43.0004 20.6837 42.4229 20.6829C42.3898 20.683 42.3567 20.6809 42.3239 20.6767L37.4543 19.9791C37.3201 19.9599 37.1944 19.9021 37.0926 19.8127C36.9908 19.7232 36.9172 19.6061 36.8809 19.4755L34.4883 10.9075C34.4139 10.643 34.2553 10.4101 34.0365 10.2441C33.8176 10.078 33.5506 9.9879 33.276 9.98739H25.2967C25.1117 9.98739 24.9342 9.9139 24.8034 9.78308C24.6726 9.65226 24.5991 9.47484 24.5991 9.28984C24.5991 9.10483 24.6726 8.92741 24.8034 8.79659C24.9342 8.66578 25.1117 8.59229 25.2967 8.59229H33.276C33.8558 8.5934 34.4194 8.78383 34.8811 9.13461C35.3428 9.48539 35.6774 9.97734 35.8339 10.5357L38.1044 18.6649L42.4774 19.2927C43.4159 19.3075 44.3111 19.6905 44.97 20.359C45.6289 21.0276 45.9988 21.9283 46 22.867L45.9553 31.2836C45.9544 31.468 45.8805 31.6445 45.7498 31.7746C45.6191 31.9047 45.4422 31.9777 45.2578 31.9777Z" fill="#C4C4C4"></path><path d="M25.2967 24.0697C25.1117 24.0697 24.9342 23.9962 24.8034 23.8654C24.6726 23.7346 24.5991 23.5571 24.5991 23.3721V9.29277C24.5991 9.10776 24.6726 8.93034 24.8034 8.79952C24.9342 8.66871 25.1117 8.59521 25.2967 8.59521C25.4817 8.59521 25.6591 8.66871 25.7899 8.79952C25.9207 8.93034 25.9942 9.10776 25.9942 9.29277V23.3721C25.9942 23.5571 25.9207 23.7346 25.7899 23.8654C25.6591 23.9962 25.4817 24.0697 25.2967 24.0697Z" fill="#C4C4C4"></path><path d="M12.145 37.2099C10.9723 37.2099 9.82598 36.8622 8.85093 36.2107C7.87588 35.5592 7.11592 34.6332 6.66716 33.5497C6.21839 32.4663 6.10097 31.2742 6.32975 30.124C6.55853 28.9739 7.12323 27.9174 7.95244 27.0882C8.78165 26.259 9.83813 25.6943 10.9883 25.4655C12.1384 25.2367 13.3306 25.3541 14.414 25.8029C15.4974 26.2517 16.4234 27.0116 17.0749 27.9867C17.7264 28.9617 18.0742 30.1081 18.0742 31.2807C18.0723 32.8527 17.4471 34.3597 16.3355 35.4713C15.224 36.5828 13.717 37.2081 12.145 37.2099ZM12.145 26.7467C11.2482 26.7467 10.3716 27.0126 9.626 27.5108C8.88038 28.009 8.29924 28.7171 7.95606 29.5456C7.61289 30.3741 7.5231 31.2858 7.69805 32.1653C7.87299 33.0448 8.30482 33.8527 8.93893 34.4868C9.57303 35.1209 10.3809 35.5528 11.2605 35.7277C12.14 35.9027 13.0516 35.8129 13.8801 35.4697C14.7086 35.1265 15.4167 34.5454 15.915 33.7997C16.4132 33.0541 16.6791 32.1775 16.6791 31.2807C16.6776 30.0787 16.1994 28.9263 15.3495 28.0763C14.4995 27.2263 13.3471 26.7481 12.145 26.7467Z" fill="#C4C4C4"></path><path d="M33.8896 37.2099C32.717 37.2099 31.5706 36.8622 30.5956 36.2107C29.6205 35.5592 28.8606 34.6332 28.4118 33.5497C27.963 32.4663 27.8456 31.2742 28.0744 30.124C28.3032 28.9739 28.8679 27.9174 29.6971 27.0882C30.5263 26.259 31.5828 25.6943 32.7329 25.4655C33.8831 25.2367 35.0752 25.3541 36.1586 25.8029C37.2421 26.2517 38.1681 27.0116 38.8196 27.9867C39.4711 28.9617 39.8188 30.1081 39.8188 31.2807C39.817 32.8527 39.1917 34.3597 38.0802 35.4713C36.9686 36.5828 35.4616 37.2081 33.8896 37.2099ZM33.8896 26.7467C32.9929 26.7467 32.1163 27.0126 31.3706 27.5108C30.625 28.009 30.0439 28.7171 29.7007 29.5456C29.3575 30.3741 29.2677 31.2858 29.4427 32.1653C29.6176 33.0448 30.0495 33.8527 30.6836 34.4868C31.3177 35.1209 32.1256 35.5528 33.0051 35.7277C33.8846 35.9027 34.7963 35.8129 35.6248 35.4697C36.4532 35.1265 37.1614 34.5454 37.6596 33.7997C38.1578 33.0541 38.4237 32.1775 38.4237 31.2807C38.4222 30.0787 37.9441 28.9263 37.0941 28.0763C36.2441 27.2263 35.0917 26.7481 33.8896 26.7467Z" fill="#C4C4C4"></path><path d="M34.6621 22.8331H33.0486C32.8636 22.8331 32.6862 22.7596 32.5554 22.6288C32.4246 22.498 32.3511 22.3205 32.3511 22.1355C32.3511 21.9505 32.4246 21.7731 32.5554 21.6423C32.6862 21.5115 32.8636 21.438 33.0486 21.438H34.6621C34.8471 21.438 35.0245 21.5115 35.1553 21.6423C35.2861 21.7731 35.3596 21.9505 35.3596 22.1355C35.3596 22.3205 35.2861 22.498 35.1553 22.6288C35.0245 22.7596 34.8471 22.8331 34.6621 22.8331Z" fill="#C4C4C4"></path><path d="M34.3208 18.1696H27.722C27.537 18.1696 27.3595 18.0961 27.2287 17.9653C27.0979 17.8345 27.0244 17.6571 27.0244 17.4721V12.3269C27.0244 12.1419 27.0979 11.9645 27.2287 11.8337C27.3595 11.7029 27.537 11.6294 27.722 11.6294H32.9662C33.1201 11.6295 33.2696 11.6806 33.3915 11.7746C33.5134 11.8686 33.6007 12.0002 33.64 12.1491L34.9967 17.2942C35.024 17.3974 35.0271 17.5056 35.006 17.6102C34.9848 17.7149 34.9399 17.8133 34.8748 17.8978C34.8096 17.9824 34.7259 18.0509 34.6301 18.098C34.5343 18.1451 34.429 18.1696 34.3222 18.1696H34.3208ZM28.4195 16.7745H33.4161L32.4283 13.0245H28.4195V16.7745Z" fill="#C4C4C4"></path><path d="M45.2914 28.4036H42.4314C42.2464 28.4036 42.069 28.3302 41.9382 28.1993C41.8074 28.0685 41.7339 27.8911 41.7339 27.7061V24.3948C41.7339 24.2098 41.8074 24.0324 41.9382 23.9016C42.069 23.7708 42.2464 23.6973 42.4314 23.6973H45.2914C45.4764 23.6973 45.6538 23.7708 45.7846 23.9016C45.9155 24.0324 45.9889 24.2098 45.9889 24.3948V27.7089C45.9882 27.8934 45.9144 28.0701 45.7837 28.2003C45.6529 28.3305 45.4759 28.4036 45.2914 28.4036ZM43.129 27.0085H44.5938V25.0924H43.129V27.0085Z" fill="#C4C4C4"></path><path d="M15.1864 12.4148C15.0602 12.4149 14.9365 12.3804 14.8285 12.3151L5.6125 6.79118C5.52867 6.74699 5.45472 6.68618 5.39517 6.61246C5.33562 6.53875 5.29172 6.45367 5.26613 6.36243C5.24055 6.27118 5.23383 6.17568 5.24638 6.08175C5.25892 5.98782 5.29048 5.89743 5.33912 5.8161C5.38775 5.73477 5.45245 5.6642 5.52927 5.6087C5.60608 5.55321 5.69339 5.51394 5.78588 5.4933C5.87837 5.47267 5.9741 5.47109 6.06722 5.48868C6.16033 5.50626 6.24889 5.54263 6.32749 5.59558L15.5456 11.1195C15.6763 11.1981 15.7776 11.3173 15.8341 11.4589C15.8906 11.6005 15.8991 11.7568 15.8583 11.9037C15.8176 12.0506 15.7298 12.1802 15.6085 12.2725C15.4871 12.3648 15.3389 12.4148 15.1864 12.4148Z" fill="#C4C4C4"></path><path d="M15.1862 8.78433C15.0602 8.78425 14.9365 8.75002 14.8284 8.68528L7.19717 4.11632C7.0409 4.02014 6.92881 3.86625 6.88521 3.688C6.84161 3.50975 6.87001 3.3215 6.96424 3.16404C7.05848 3.00658 7.21097 2.8926 7.38866 2.84679C7.56636 2.80098 7.75494 2.82704 7.91356 2.91932L15.5448 7.48758C15.6761 7.56583 15.778 7.68505 15.835 7.82689C15.8919 7.96873 15.9007 8.12535 15.86 8.27267C15.8192 8.41999 15.7312 8.54985 15.6095 8.6423C15.4878 8.73474 15.3391 8.78464 15.1862 8.78433Z" fill="#C4C4C4"></path><path d="M4.71461 7.07037C4.08969 7.0695 3.47617 6.90295 2.93659 6.58772C2.39701 6.27248 1.95065 5.81981 1.64301 5.27586C1.33537 4.73191 1.17745 4.11612 1.18534 3.49125C1.19323 2.86638 1.36666 2.25477 1.68794 1.71876C2.00569 1.18822 2.45705 0.750315 2.99696 0.448765C3.53687 0.147215 4.14644 -0.00742818 4.76481 0.000274288C5.38318 0.00797676 5.98871 0.177756 6.52094 0.492661C7.05317 0.807566 7.49349 1.25658 7.79793 1.79487C8.10236 2.33316 8.26027 2.94189 8.25588 3.56029C8.25149 4.17869 8.08495 4.78512 7.7729 5.31903C7.46085 5.85294 7.0142 6.29566 6.47755 6.60297C5.9409 6.91029 5.33302 7.07145 4.71461 7.07037ZM2.88493 2.43515C2.66724 2.79818 2.5621 3.21762 2.5828 3.64042C2.60351 4.06322 2.74913 4.47037 3.00126 4.8104C3.25339 5.15043 3.60069 5.40805 3.99924 5.55068C4.39779 5.69331 4.82968 5.71454 5.2403 5.61169C5.65092 5.50884 6.02182 5.28653 6.30608 4.97287C6.59034 4.65921 6.7752 4.2683 6.83728 3.84958C6.89935 3.43085 6.83586 3.00312 6.65482 2.62048C6.47379 2.23784 6.18334 1.91748 5.82023 1.69993C5.33323 1.40922 4.75087 1.32337 4.2007 1.46117C3.65053 1.59898 3.1774 1.9492 2.88493 2.43515Z" fill="#C4C4C4"></path><path d="M3.82166 15.625C3.61553 15.6248 3.41009 15.6014 3.20921 15.5552C2.73073 15.4443 2.29294 15.2015 1.94559 14.8543C1.59823 14.507 1.35523 14.0693 1.24421 13.5909C1.08877 12.9258 1.1948 12.2264 1.54039 11.6373C1.88598 11.0481 2.4447 10.6143 3.10109 10.4254L3.1269 6.22685C3.1269 6.04185 3.20039 5.86442 3.3312 5.73361C3.46202 5.60279 3.63945 5.5293 3.82445 5.5293C4.00945 5.5293 4.18687 5.60279 4.31769 5.73361C4.44851 5.86442 4.522 6.04185 4.522 6.22685V10.3884C4.52153 10.7001 4.41987 11.0032 4.23231 11.2522C4.04475 11.5011 3.78143 11.6825 3.48195 11.7689C3.16781 11.8575 2.90051 12.0649 2.73671 12.3472C2.5729 12.6295 2.52545 12.9645 2.60443 13.2812C2.65789 13.5033 2.77163 13.7063 2.93311 13.8679C3.09459 14.0295 3.29755 14.1434 3.51962 14.1971C3.70486 14.2433 3.89821 14.2467 4.08496 14.207C4.27171 14.1673 4.44695 14.0855 4.59733 13.9678C4.74772 13.8502 4.8693 13.6998 4.95282 13.5281C5.03635 13.3565 5.07962 13.168 5.07934 12.977C5.07934 12.792 5.15283 12.6146 5.28365 12.4838C5.41447 12.353 5.59189 12.2795 5.77689 12.2795C5.96189 12.2795 6.13932 12.353 6.27014 12.4838C6.40095 12.6146 6.47444 12.792 6.47444 12.977C6.47444 13.3251 6.40588 13.6698 6.27267 13.9914C6.13946 14.313 5.94421 14.6052 5.69807 14.8514C5.45193 15.0975 5.15972 15.2928 4.83813 15.426C4.51653 15.5592 4.17184 15.6277 3.82375 15.6277L3.82166 15.625Z" fill="#C4C4C4"></path><path d="M19.5669 24.0696H15.1863C15.0013 24.0696 14.8239 23.9961 14.6931 23.8652C14.5623 23.7344 14.4888 23.557 14.4888 23.372V8.08378C14.4888 7.89878 14.5623 7.72135 14.6931 7.59054C14.8239 7.45972 15.0013 7.38623 15.1863 7.38623H19.5669C19.7519 7.38623 19.9294 7.45972 20.0602 7.59054C20.191 7.72135 20.2645 7.89878 20.2645 8.08378V23.372C20.2645 23.557 20.191 23.7344 20.0602 23.8652C19.9294 23.9961 19.7519 24.0696 19.5669 24.0696ZM15.8846 22.6745H18.8694V8.78133H15.8839L15.8846 22.6745Z" fill="#C4C4C4"></path></svg>