<svg xmlns="http://www.w3.org/2000/svg" width="42" height="42" viewBox="0 0 42 42" fill="none"><path d="M20.9999 40.865C17.071 40.865 13.2303 39.6999 9.96356 37.5172C6.6968 35.3344 4.15067 32.2319 2.64714 28.6021C1.14362 24.9723 0.750226 20.9781 1.51672 17.1247C2.28321 13.2713 4.17515 9.7317 6.9533 6.95355C9.73145 4.1754 13.271 2.28345 17.1244 1.51696C20.9778 0.75047 24.972 1.14386 28.6018 2.64739C32.2317 4.15091 35.3341 6.69704 37.5169 9.9638C39.6997 13.2306 40.8647 17.0712 40.8647 21.0001C40.8647 26.2686 38.7719 31.3213 35.0465 35.0467C31.3211 38.7721 26.2684 40.865 20.9999 40.865ZM20.9999 2.2704C17.2955 2.2704 13.6743 3.36888 10.5942 5.42693C7.51411 7.48498 5.11348 10.4102 3.69587 13.8326C2.27826 17.255 1.90735 21.0209 2.63004 24.6541C3.35273 28.2873 5.13656 31.6246 7.75596 34.244C10.3754 36.8634 13.7127 38.6473 17.3459 39.37C20.9791 40.0927 24.745 39.7217 28.1674 38.3041C31.5899 36.8865 34.515 34.4859 36.5731 31.4058C38.6311 28.3257 39.7296 24.7045 39.7296 21.0001C39.7296 16.0327 37.7563 11.2687 34.2438 7.75621C30.7313 4.2437 25.9673 2.2704 20.9999 2.2704Z" fill="#C4C4C4"></path><path d="M21 36.75C17.885 36.75 14.8399 35.8263 12.2498 34.0957C9.6597 32.365 7.64098 29.9052 6.4489 27.0273C5.25682 24.1493 4.94492 20.9825 5.55264 17.9273C6.16036 14.8721 7.6604 12.0658 9.86308 9.86308C12.0658 7.6604 14.8721 6.16036 17.9273 5.55264C20.9825 4.94492 24.1493 5.25682 27.0273 6.4489C29.9052 7.64098 32.365 9.6597 34.0957 12.2498C35.8263 14.8399 36.75 17.885 36.75 21C36.7455 25.1758 35.0847 29.1792 32.132 32.132C29.1792 35.0847 25.1758 36.7455 21 36.75ZM21 6.38514C18.1095 6.38514 15.2838 7.24229 12.8804 8.84819C10.477 10.4541 8.6038 12.7366 7.49763 15.4071C6.39147 18.0777 6.10204 21.0162 6.66596 23.8512C7.22988 26.6862 8.62181 29.2904 10.6657 31.3343C12.7097 33.3782 15.3138 34.7701 18.1488 35.3341C20.9838 35.898 23.9224 35.6085 26.5929 34.5024C29.2634 33.3962 31.5459 31.523 33.1518 29.1196C34.7577 26.7162 35.6149 23.8906 35.6149 21C35.6104 17.1253 34.0691 13.4106 31.3293 10.6707C28.5895 7.93087 24.8747 6.38965 21 6.38514Z" fill="#C4C4C4"></path><path d="M20.9999 21.5677C20.1308 21.5677 19.2813 21.3099 18.5587 20.827C17.8362 20.344 17.2731 19.6576 16.9408 18.8545C16.6085 18.0515 16.5218 17.1679 16.6918 16.3156C16.8617 15.4633 17.2807 14.6805 17.8956 14.0664C18.5106 13.4523 19.2938 13.0343 20.1464 12.8655C20.9989 12.6966 21.8823 12.7844 22.685 13.1178C23.4876 13.4511 24.1733 14.0151 24.6553 14.7382C25.1373 15.4614 25.394 16.3113 25.3929 17.1804C25.3929 17.3309 25.3331 17.4753 25.2266 17.5817C25.1202 17.6882 24.9758 17.748 24.8253 17.748C24.6748 17.748 24.5304 17.6882 24.424 17.5817C24.3175 17.4753 24.2577 17.3309 24.2577 17.1804C24.2589 16.5358 24.0687 15.9054 23.7115 15.3689C23.3542 14.8324 22.8458 14.4139 22.2506 14.1665C21.6554 13.919 21.0001 13.8537 20.3678 13.9788C19.7355 14.1038 19.1545 14.4137 18.6983 14.8691C18.2421 15.3245 17.9313 15.9049 17.8051 16.5371C17.6789 17.1692 17.7431 17.8245 17.9895 18.4201C18.2359 19.0158 18.6535 19.5249 19.1894 19.8831C19.7252 20.2413 20.3553 20.4326 20.9999 20.4326C21.1504 20.4326 21.2948 20.4924 21.4012 20.5988C21.5077 20.7052 21.5675 20.8496 21.5675 21.0001C21.5675 21.1507 21.5077 21.295 21.4012 21.4015C21.2948 21.5079 21.1504 21.5677 20.9999 21.5677Z" fill="#C4C4C4"></path><path d="M20.9999 29.2128C19.8353 29.2113 18.7188 28.748 17.8953 27.9245C17.0717 27.101 16.6084 25.9845 16.6069 24.8198C16.6069 24.6693 16.6667 24.5249 16.7732 24.4185C16.8796 24.3121 17.024 24.2523 17.1745 24.2523C17.325 24.2523 17.4694 24.3121 17.5758 24.4185C17.6823 24.5249 17.7421 24.6693 17.7421 24.8198C17.7409 25.4644 17.9311 26.0948 18.2884 26.6313C18.6456 27.1678 19.1541 27.5863 19.7492 27.8337C20.3444 28.0812 20.9997 28.1465 21.632 28.0214C22.2643 27.8964 22.8453 27.5865 23.3015 27.1312C23.7577 26.6758 24.0686 26.0953 24.1947 25.4632C24.3209 24.8311 24.2567 24.1757 24.0103 23.5801C23.7639 22.9845 23.3463 22.4753 22.8104 22.1171C22.2746 21.7589 21.6445 21.5677 20.9999 21.5677C20.8494 21.5677 20.705 21.5079 20.5986 21.4014C20.4921 21.295 20.4323 21.1506 20.4323 21.0001C20.4323 20.8496 20.4921 20.7052 20.5986 20.5988C20.705 20.4923 20.8494 20.4325 20.9999 20.4325C21.5897 20.4113 22.1777 20.5092 22.7289 20.7202C23.28 20.9313 23.783 21.2513 24.2077 21.661C24.6325 22.0708 24.9703 22.5619 25.2011 23.1051C25.4318 23.6483 25.5507 24.2325 25.5507 24.8227C25.5507 25.4128 25.4318 25.997 25.2011 26.5402C24.9703 27.0834 24.6325 27.5745 24.2077 27.9843C23.783 28.3941 23.28 28.714 22.7289 28.9251C22.1777 29.1362 21.5897 29.234 20.9999 29.2128Z" fill="#C4C4C4"></path><path d="M20.9999 30.4328C20.8494 30.4328 20.7051 30.373 20.5986 30.2666C20.4922 30.1602 20.4324 30.0158 20.4324 29.8653V12.1345C20.4324 11.9839 20.4922 11.8396 20.5986 11.7331C20.7051 11.6267 20.8494 11.5669 20.9999 11.5669C21.1505 11.5669 21.2948 11.6267 21.4013 11.7331C21.5077 11.8396 21.5675 11.9839 21.5675 12.1345V29.8653C21.5675 30.0158 21.5077 30.1602 21.4013 30.2666C21.2948 30.373 21.1505 30.4328 20.9999 30.4328Z" fill="#C4C4C4"></path></svg>