<svg xmlns="http://www.w3.org/2000/svg" width="60" height="60" viewBox="0 0 60 60" fill="none"><path d="M30.0006 9.78272C30.718 9.78272 31.305 9.19576 31.305 8.47837V7.8262C31.305 7.10881 30.718 6.52185 30.0006 6.52185C29.2832 6.52185 28.6963 7.10881 28.6963 7.8262V8.47837C28.6963 9.19576 29.2832 9.78272 30.0006 9.78272Z" fill="#1A1A1A"></path><path d="M30.0006 50.2175C29.2832 50.2175 28.6963 50.8045 28.6963 51.5219V52.1741C28.6963 52.8915 29.2832 53.4784 30.0006 53.4784C30.718 53.4784 31.305 52.8915 31.305 52.1741V51.5219C31.305 50.8045 30.718 50.2175 30.0006 50.2175Z" fill="#1A1A1A"></path><path d="M8.478 28.6956H7.82583C7.10844 28.6956 6.52148 29.2825 6.52148 29.9999C6.52148 30.7173 7.10844 31.3043 7.82583 31.3043H8.478C9.1954 31.3043 9.78235 30.7173 9.78235 29.9999C9.78235 29.2825 9.1954 28.6956 8.478 28.6956Z" fill="#1A1A1A"></path><path d="M52.1743 28.6956H51.5221C50.8047 28.6956 50.2178 29.2825 50.2178 29.9999C50.2178 30.7173 50.8047 31.3043 51.5221 31.3043H52.1743C52.8917 31.3043 53.4787 30.7173 53.4787 29.9999C53.4787 29.2825 52.8917 28.6956 52.1743 28.6956Z" fill="#1A1A1A"></path><path d="M15.2604 13.4346C14.7386 12.9129 13.956 12.9129 13.4343 13.4346C12.9125 13.9564 12.9125 14.739 13.4343 15.2607L13.8908 15.7172C14.1517 15.9781 14.4778 16.1086 14.8038 16.1086C15.1299 16.1086 15.456 15.9781 15.7169 15.7172C16.2386 15.1955 16.2386 14.4129 15.7169 13.8912L15.2604 13.4346Z" fill="#1A1A1A"></path><path d="M13.8908 44.2825L13.4343 44.7391C12.9125 45.2608 12.9125 46.0434 13.4343 46.5651C13.6951 46.826 14.0212 46.9565 14.3473 46.9565C14.6734 46.9565 14.9995 46.826 15.2604 46.5651L15.7169 46.1086C16.2386 45.5869 16.2386 44.8043 15.7169 44.2825C15.1951 43.7608 14.4125 43.7608 13.8908 44.2825Z" fill="#1A1A1A"></path><path d="M44.7394 13.4346L44.2829 13.8912C43.7612 14.4129 43.7612 15.1955 44.2829 15.7172C44.5438 15.9781 44.8699 16.1086 45.1959 16.1086C45.522 16.1086 45.8481 15.9781 46.109 15.7172L46.5655 15.2607C47.0873 14.739 47.0873 13.9564 46.5655 13.4346C46.0438 12.9129 45.2612 12.9129 44.7394 13.4346Z" fill="#1A1A1A"></path><path d="M31.305 29.4784V17.6088C31.305 16.8914 30.718 16.3044 30.0006 16.3044C29.2832 16.3044 28.6963 16.8914 28.6963 17.6088V30.0001C28.6963 30.3262 28.8267 30.6523 29.0876 30.9131L43.3702 45.1958C43.6311 45.4566 43.9571 45.5871 44.2832 45.5871C44.6093 45.5871 44.9354 45.4566 45.1963 45.1958C45.718 44.674 45.718 43.8914 45.1963 43.3697L31.305 29.4784Z" fill="#1A1A1A"></path><path d="M30 0C13.4348 0 0 13.4348 0 30C0 46.5652 13.4348 60 30 60C46.5652 60 60 46.5652 60 30C60 13.4348 46.5652 0 30 0ZM30 57.3913C14.8696 57.3913 2.6087 45.1304 2.6087 30C2.6087 14.8696 14.8696 2.6087 30 2.6087C45.1304 2.6087 57.3913 14.8696 57.3913 30C57.3913 45.1304 45.1304 57.3913 30 57.3913Z" fill="#1A1A1A"></path></svg>