<svg xmlns="http://www.w3.org/2000/svg" width="43" height="55" viewBox="0 0 43 55" fill="none"><path d="M41.4783 11.6606L21.6894 1.11602C21.3958 0.959335 21.044 0.961534 20.7526 1.12152L1.51128 11.6661C1.19572 11.8392 1 12.1702 1 12.5303V26.3042C1.01155 37.6266 7.71981 47.8699 18.0939 52.406L20.7647 53.5699C21.0143 53.6787 21.2985 53.6793 21.5487 53.571L24.5581 52.2713C35.1246 47.8336 41.9989 37.4914 42 26.0309V12.5303C42 12.1663 41.7993 11.8315 41.4783 11.6606ZM40.0296 26.0309C40.0274 36.7014 33.6254 46.3294 23.7868 50.4587L23.7802 50.462L21.1594 51.5935L18.8823 50.6C9.22562 46.3778 2.98081 36.8438 2.96982 26.3042V13.1136L21.2325 3.10453L40.0296 13.1207V26.0309Z" fill="#C4C4C4" stroke="#C4C4C4" stroke-width="1.2"></path><path d="M13.9633 25.6654C13.6098 25.2514 12.9881 25.2025 12.5741 25.556C12.1601 25.909 12.1112 26.5313 12.4647 26.9447L17.6688 33.0389C18.0162 33.4457 18.6248 33.5013 19.0393 33.1637L31.1595 23.3031C31.5817 22.96 31.6455 22.3393 31.3019 21.9171C30.9589 21.4954 30.3382 21.4311 29.9159 21.7747L18.5424 31.0273L13.9633 25.6654Z" fill="#C4C4C4" stroke="#C4C4C4" stroke-width="1.2"></path></svg>