<svg xmlns="http://www.w3.org/2000/svg" width="24" height="24" viewBox="0 0 46 46" fill="none">
  <path fill-rule="evenodd" clip-rule="evenodd" d="M46 23C46 35.7025 35.7025 46 23 46C18.1314 46 13.6161 44.4873 9.89852 41.9062L0 45.7444L3.46217 35.1415C1.26769 31.6177 0 27.4569 0 23C0 10.2975 10.2975 0 23 0C35.7025 0 46 10.2975 46 23ZM24.2784 33.299C26.7397 34.433 29.1898 35 31.6287 35C32.0205 35 32.347 34.8706 32.6082 34.6118C32.8694 34.3529 33 34.0294 33 33.6412V29.4453C33 29.1317 32.8967 28.8513 32.6902 28.6041C32.4836 28.3569 32.2169 28.1902 31.89 28.1039L28.2964 27.3722C27.9862 27.3291 27.6871 27.3498 27.3992 27.4344C27.1114 27.5191 26.8662 27.6667 26.6638 27.8774L24.8346 29.7223C24.1998 30.3625 23.2097 30.5068 22.4548 30.0137C22.0092 29.7226 21.5805 29.4203 21.1688 29.1068C20.3691 28.4979 19.6142 27.8384 18.904 27.1283C18.184 26.4132 17.515 25.6629 16.8969 24.8773C16.5916 24.4891 16.303 24.0894 16.031 23.678C15.5361 22.9291 15.693 21.9443 16.3363 21.3182L18.237 19.4681C18.4262 19.2955 18.5573 19.0823 18.6303 18.8285C18.7033 18.5747 18.7141 18.271 18.6626 17.9176L17.921 14.11C17.853 13.7964 17.6941 13.533 17.4444 13.3198C17.1947 13.1066 16.9065 13 16.5796 13H12.3588C11.9706 13 11.6471 13.1306 11.3882 13.3918C11.1294 13.653 11 13.9795 11 14.3713C11 16.8102 11.567 19.2582 12.701 21.7154C13.835 24.1725 15.4328 26.4339 17.4943 28.4995C19.5557 30.5651 21.8171 32.165 24.2784 33.299Z" fill="white"/>
</svg>