<svg xmlns="http://www.w3.org/2000/svg" width="108" height="23" viewBox="0 0 108 23" fill="none"><g clip-path="url(#clip0)"><path d="M12.1551 0.0322266H9.53342L0 22.7101H3.77932L6.50315 16.1065H15.2194L17.9092 22.7101H21.6885L12.1551 0.0322266ZM7.66078 13.2073L10.8272 5.50842L14.0277 13.2073H7.66078Z" fill="white"></path><path d="M49.3355 11.4033V22.71H45.9647V11.2422C45.9647 10.7268 45.8966 10.2114 45.7605 9.76045C45.6243 9.34169 45.42 8.95513 45.1816 8.66522C44.9433 8.3753 44.6028 8.14981 44.1602 7.95653C43.7176 7.76325 43.2069 7.69883 42.594 7.69883C42.0833 7.69883 41.5726 7.79547 41.0959 7.98874C40.6192 8.18202 40.1766 8.43972 39.8021 8.79407C39.4275 9.14841 39.1211 9.59939 38.8828 10.1148C38.6444 10.6302 38.5423 11.2422 38.5423 11.9187V22.71H35.1716V11.2422C35.1716 10.1792 34.8651 9.30947 34.2523 8.66522C33.6394 8.02096 32.8222 7.69883 31.7327 7.69883C31.1539 7.69883 30.6091 7.79547 30.1325 7.98874C29.6217 8.18202 29.1791 8.47194 28.8046 8.82628C28.4301 9.18062 28.1236 9.6316 27.8853 10.147C27.647 10.6624 27.5448 11.2422 27.5448 11.8865V22.6778H24.1741V5.08958H27.4767V6.34589C27.8853 6.02376 28.2939 5.73384 28.7365 5.50835C29.6898 5.02516 30.7453 4.76746 31.8689 4.76746C33.1287 4.76746 34.2523 5.05737 35.3077 5.60499C36.0908 6.02376 36.7378 6.60359 37.2485 7.3767C37.8273 6.70023 38.5082 6.15261 39.3254 5.70163C40.449 5.08959 41.6407 4.76746 42.8323 4.76746C43.7857 4.76746 44.6709 4.92852 45.4881 5.25065C46.3052 5.57278 46.9862 6.02376 47.565 6.60359C48.1438 7.18342 48.5864 7.89211 48.8929 8.69743C49.1993 9.50275 49.3355 10.4047 49.3355 11.4033Z" fill="white"></path><path d="M70.5133 10.3081C70.0366 9.24508 69.3897 8.2787 68.6066 7.47338C67.8235 6.66805 66.8702 5.99158 65.8147 5.5406C64.7252 5.05741 63.5675 4.83192 62.3759 4.83192C61.7289 4.83192 61.048 4.92856 60.367 5.08962C59.7201 5.25069 59.0732 5.50839 58.4603 5.79831C57.8475 6.12043 57.2687 6.47478 56.7579 6.89354C56.6899 6.92576 56.6558 6.99018 56.5877 7.02239V-0.0322266H53.3872V22.6779H62.3759C63.6016 22.6779 64.7592 22.4524 65.8487 21.9692C66.9383 21.486 67.8576 20.8417 68.6747 20.0364C69.4578 19.2311 70.1047 18.2647 70.5474 17.2017C71.024 16.1386 71.2283 14.979 71.2283 13.7549C71.2283 12.563 70.99 11.4033 70.5133 10.3081ZM67.9597 13.7549C67.9597 14.5924 67.8235 15.3977 67.5171 16.1064C67.2107 16.8473 66.8021 17.4594 66.2914 18.007C65.7807 18.5224 65.1678 18.9734 64.4528 19.2633C63.7718 19.5532 63.0568 19.7143 62.2737 19.7143H58.5284C57.8815 19.7143 57.2346 19.7143 56.5537 19.6821V13.7549C56.5537 12.9818 56.6899 12.2087 56.9963 11.5C57.3027 10.7913 57.7113 10.1148 58.2561 9.56721C58.7668 9.01959 59.3796 8.56861 60.0946 8.24648C60.7756 7.92436 61.5247 7.76329 62.2737 7.76329C63.0568 7.76329 63.8059 7.92436 64.4868 8.21427C65.1678 8.50419 65.7807 8.92295 66.2914 9.47057C66.8021 10.0182 67.2107 10.6625 67.5171 11.4033C67.8235 12.112 67.9597 12.9174 67.9597 13.7549Z" fill="white"></path><path d="M82.8725 5.0896C81.6808 5.0896 80.5232 5.31509 79.3996 5.79828C78.3101 6.28148 77.3227 6.92573 76.5056 7.73106C75.6884 8.53638 75.0074 9.50276 74.4967 10.5658C73.986 11.661 73.7136 12.8207 73.7136 14.0448C73.7136 15.3011 73.952 16.4607 74.4627 17.556C74.9393 18.619 75.6203 19.5854 76.4375 20.3907C77.2546 21.196 78.242 21.8403 79.3315 22.3235C80.4211 22.8067 81.6127 23.0322 82.8044 23.0322C84.3706 23.0322 85.6985 22.71 86.8561 22.098C87.4349 21.7759 87.9457 21.4215 88.4223 20.9706V22.6778H91.6228V5.0896H82.8725ZM82.9747 20.0364C82.1916 20.0364 81.4425 19.8753 80.7275 19.5854C80.0125 19.2633 79.3656 18.8445 78.8208 18.2969C78.276 17.7493 77.8334 17.105 77.4929 16.3641C77.1525 15.6554 76.9822 14.8501 76.9822 14.0448C76.9822 13.2395 77.1525 12.4664 77.4929 11.7577C77.8334 11.049 78.276 10.4047 78.8208 9.85711C79.3656 9.30949 80.0125 8.89072 80.7275 8.56859C81.4425 8.24646 82.1916 8.11761 82.9406 8.11761L88.3542 8.0854V14.1736C88.3542 15.0112 88.218 15.7843 87.9457 16.493C87.6733 17.2016 87.2987 17.8459 86.8221 18.3613C86.3454 18.8767 85.7666 19.2955 85.1197 19.6176C84.5068 19.8753 83.7918 20.0364 82.9747 20.0364Z" fill="white"></path><path d="M108 4.79968V7.73106L107.353 7.76327C106.229 7.79548 105.14 7.98876 104.153 8.3431C103.165 8.69744 102.314 9.18063 101.633 9.76047C100.918 10.3403 100.373 11.049 99.9646 11.8543C99.556 12.6596 99.3517 13.5616 99.3517 14.5602V22.6778H95.7427V5.0896H99.3517V7.6022C100.033 6.92573 100.816 6.37811 101.701 5.95935C103.131 5.28288 105.038 4.89632 107.285 4.8319L108 4.79968Z" fill="white"></path></g><defs><clipPath id="clip0"><rect width="108" height="23" fill="white"></rect></clipPath></defs></svg>