<svg xmlns="http://www.w3.org/2000/svg" width="105" height="23" viewBox="0 0 105 23" fill="none"><path d="M11.999 0C5.43865 0 0.101975 4.88951 0 11.3231H3.50113C3.56912 6.85175 7.07025 2.76643 11.999 2.76643C16.9618 2.76643 20.4969 6.94825 20.4969 11.4839C20.4969 16.0517 16.9958 20.2336 11.999 20.2336C11.0133 20.2336 10.0955 20.0727 9.24571 19.7832V22.7105C10.1295 22.9035 11.0473 23 11.999 23C18.6274 23 23.9981 18.014 23.9981 11.4839C23.9981 4.95385 18.6274 0 11.999 0Z" fill="white"></path><path d="M30.8644 20.2335V0.578979H27.3633V23H42.7615V20.2335H30.8644Z" fill="white"></path><path d="M46.1606 0.578979V23H49.6618V0.578979H46.1606Z" fill="white"></path><path d="M69.4448 0.578979L63.1224 15.9552L56.7659 0.578979H53.0269L62.1366 23H64.1081L73.2179 0.578979H69.4448Z" fill="white"></path><path d="M76.583 0.578979V23H80.0841V0.578979H76.583Z" fill="white"></path><path d="M95.3123 0.578979H93.1368L83.4492 23H86.9843L94.1566 6.43353L94.2246 6.27269L94.2925 6.43353L101.465 22.9678H105L95.3123 0.578979Z" fill="white"></path></svg>