<svg width="156" height="84" viewBox="0 0 156 84" fill="none" xmlns="http://www.w3.org/2000/svg">
<g clip-path="url(#clip0_352:1170)">
<path d="M26.43 24.4502V31.6802H7.86002V37.8602H21.69V45.0902H7.86002V62.0102H0V24.4502H26.43Z" fill="#1A1A1A"/>
<path d="M30.7598 24.4502H38.6198V62.0102H30.7598V24.4502Z" fill="#1A1A1A"/>
<path d="M82.3203 48.8399C80.0603 56.7299 72.6803 62.0199 64.0803 62.0199C59.0942 62.0199 54.3123 60.0392 50.7867 56.5135C47.261 52.9878 45.2803 48.206 45.2803 43.2199C45.2803 38.2339 47.261 33.452 50.7867 29.9263C54.3123 26.4006 59.0942 24.4199 64.0803 24.4199C72.3903 24.4199 79.8803 29.3499 82.3203 37.6299L74.8503 39.8999C74.2446 37.5033 72.8561 35.3775 70.9051 33.8594C68.9541 32.3414 66.5523 31.518 64.0803 31.5199C57.5603 31.5199 53.0803 36.6299 53.0803 43.2299C53.0803 49.5499 57.4503 54.9199 64.0803 54.9199C66.5626 54.957 68.9831 54.1455 70.9415 52.6199C72.8999 51.0943 74.2789 48.9458 74.8503 46.5299L82.3203 48.8399Z" fill="#1A1A1A"/>
<path d="M119.91 24.4199V44.7999C119.91 54.4699 113.63 62.0199 103.62 62.0199C93.8996 62.0199 87.3496 54.5999 87.3496 44.7999V24.4199H95.2096V44.4199C95.2096 49.4199 97.7196 54.7399 103.64 54.7399C109.22 54.7399 112.05 49.8399 112.05 44.4199V24.4199H119.91Z" fill="#1A1A1A"/>
<path d="M129.95 50.1202C132.872 53.0513 136.812 54.7421 140.95 54.8402C144.8 54.8402 147.74 53.1402 147.74 50.5902C147.74 43.8902 125.52 49.1802 125.52 35.5902C125.52 28.1302 131.65 24.4302 138.88 24.4302C143.857 24.4767 148.702 26.0472 152.76 28.9302L148.31 34.3802C145.537 32.5424 142.286 31.5584 138.96 31.5502C135.84 31.5502 133.32 32.5502 133.32 35.0602C133.32 42.1302 155.54 35.9702 155.54 50.5702C155.54 57.1502 149.25 61.9902 141.24 61.9902C136.24 61.9902 130.47 60.0802 125.18 55.4702L129.95 50.1202Z" fill="#1A1A1A"/>
<path d="M31.7604 7.15993C31.7529 8.18091 31.5267 9.18843 31.0972 10.1147C30.6677 11.041 30.0448 11.8645 29.2704 12.5299L31.0004 14.8499L30.0004 15.5599L28.2704 13.2099C27.1405 13.9271 25.8287 14.3054 24.4904 14.2999C23.0823 14.2822 21.7108 13.8484 20.5485 13.0531C19.3862 12.2579 18.4851 11.1366 17.9585 9.83051C17.4318 8.52438 17.3032 7.09168 17.5888 5.71264C17.8743 4.33359 18.5614 3.0698 19.5634 2.08024C20.5654 1.09067 21.8378 0.41955 23.2203 0.151267C24.6028 -0.117015 26.0338 0.029532 27.3332 0.572486C28.6326 1.11544 29.7424 2.03055 30.5231 3.20269C31.3037 4.37483 31.7203 5.75163 31.7204 7.15993H31.7604ZM24.5304 13.1599C25.7171 13.1599 26.8772 12.8081 27.8639 12.1488C28.8506 11.4895 29.6196 10.5524 30.0737 9.45605C30.5278 8.35969 30.6467 7.15329 30.4152 5.9894C30.1836 4.82552 29.6122 3.75642 28.7731 2.9173C27.934 2.07819 26.8649 1.50674 25.701 1.27523C24.5371 1.04372 23.3307 1.16253 22.2343 1.61666C21.138 2.07079 20.2009 2.83982 19.5416 3.82651C18.8823 4.81321 18.5304 5.97325 18.5304 7.15993C18.5251 7.95122 18.6764 8.73575 18.9756 9.46833C19.2748 10.2009 19.7159 10.8671 20.2736 11.4285C20.8313 11.9899 21.4945 12.4354 22.2251 12.7394C22.9556 13.0434 23.7391 13.2 24.5304 13.1999V13.1599Z" fill="#1A1A1A"/>
<path d="M48.3797 0.00976562V9.00977C48.4107 9.72048 48.2975 10.4301 48.0469 11.0959C47.7962 11.7617 47.4134 12.3698 46.9215 12.8837C46.4295 13.3975 45.8386 13.8065 45.1844 14.0859C44.5301 14.3652 43.8261 14.5093 43.1147 14.5093C42.4034 14.5093 41.6993 14.3652 41.0451 14.0859C40.3908 13.8065 39.8 13.3975 39.308 12.8837C38.8161 12.3698 38.4332 11.7617 38.1826 11.0959C37.932 10.4301 37.8187 9.72048 37.8497 9.00977V0.00976562H39.0297V8.91977C39.0297 10.0019 39.4596 11.0396 40.2247 11.8048C40.9899 12.5699 42.0277 12.9998 43.1097 12.9998C44.1918 12.9998 45.2296 12.5699 45.9947 11.8048C46.7599 11.0396 47.1897 10.0019 47.1897 8.91977V0.00976562H48.3797Z" fill="#1A1A1A"/>
<path d="M55.1904 0.00976562H56.3704V14.2898H55.1904V0.00976562Z" fill="#1A1A1A"/>
<path d="M74.6604 0.00976562V14.2898H73.8504L64.5404 2.07977V14.2898H63.3604V0.00976562H64.1703L73.4704 12.2298V0.00976562H74.6604Z" fill="#1A1A1A"/>
<path d="M95.0302 9.28002C94.5093 10.9187 93.4215 12.3181 91.962 13.2271C90.5024 14.1361 88.7667 14.4952 87.0663 14.2399C85.3659 13.9846 83.8121 13.1316 82.6839 11.8341C81.5557 10.5365 80.9268 8.87938 80.9102 7.16001C80.9199 5.43812 81.5437 3.77623 82.6696 2.47339C83.7955 1.17055 85.3494 0.312305 87.0517 0.0531031C88.754 -0.206098 90.4929 0.150764 91.9555 1.05947C93.4181 1.96817 94.5084 3.36905 95.0302 5.01001L93.9102 5.36002C93.484 3.97553 92.5751 2.78992 91.3489 2.01869C90.1226 1.24747 88.6604 0.941838 87.2279 1.15734C85.7954 1.37283 84.4878 2.09516 83.5427 3.19303C82.5977 4.29089 82.0779 5.69141 82.0779 7.14002C82.0779 8.58862 82.5977 9.98913 83.5427 11.087C84.4878 12.1849 85.7954 12.9072 87.2279 13.1227C88.6604 13.3382 90.1226 13.0325 91.3489 12.2613C92.5751 11.4901 93.484 10.3045 93.9102 8.92002L95.0302 9.28002Z" fill="#1A1A1A"/>
<path d="M111.82 0.00976562V14.2998H110.62V7.05977H102.31V14.2998H101.12V0.00976562H102.31V5.92976H110.62V0.00976562H111.82Z" fill="#1A1A1A"/>
<path d="M125.28 0.0100174C126.692 0.0218627 128.068 0.451254 129.236 1.24407C130.404 2.03689 131.311 3.15767 131.843 4.46516C132.375 5.77265 132.508 7.20834 132.226 8.59133C131.943 9.97432 131.257 11.2427 130.255 12.2367C129.253 13.2306 127.979 13.9056 126.593 14.1767C125.208 14.4478 123.773 14.3027 122.47 13.7598C121.167 13.2169 120.054 12.3005 119.271 11.126C118.488 9.95157 118.07 8.57158 118.07 7.16001C118.07 6.21599 118.257 5.28132 118.62 4.4099C118.983 3.53849 119.515 2.74761 120.186 2.08288C120.856 1.41815 121.651 0.892737 122.526 0.536964C123.4 0.181192 124.336 0.00209553 125.28 0.0100174ZM125.28 13.2C126.467 13.2 127.627 12.8481 128.614 12.1888C129.6 11.5295 130.369 10.5925 130.824 9.49612C131.278 8.39976 131.397 7.19336 131.165 6.02947C130.934 4.86559 130.362 3.79649 129.523 2.95737C128.684 2.11826 127.615 1.54681 126.451 1.3153C125.287 1.08379 124.081 1.20262 122.984 1.65675C121.888 2.11087 120.951 2.87991 120.292 3.8666C119.632 4.85329 119.28 6.01333 119.28 7.20002C119.28 8.79132 119.912 10.3174 121.038 11.4427C122.163 12.5679 123.689 13.2 125.28 13.2Z" fill="#1A1A1A"/>
<path d="M61.7 72.7002H51V83.4002H61.7V72.7002Z" fill="#1A1A1A"/>
<path d="M82.4702 73.3402V82.7602H73.0501V73.3402H82.4702ZM83.1101 72.7002H72.4102V83.4002H83.1101V72.7002Z" fill="#1A1A1A"/>
<path d="M103.88 73.3402V82.7602H94.4603V73.3402H103.88ZM104.52 72.7002H93.8203V83.4002H104.52V72.7002Z" fill="#1A1A1A"/>
</g>
<defs>
<clipPath id="clip0_352:1170">
<rect width="155.52" height="83.4" fill="white"/>
</clipPath>
</defs>
</svg>
