<svg width="208" height="84" viewBox="0 0 208 84" fill="none" xmlns="http://www.w3.org/2000/svg">
<g clip-path="url(#clip0_352:1153)">
<path d="M7.86002 24.3701V54.7101H26.43V62.0101H0V24.4101L7.86002 24.3701Z" fill="#1A1A1A"/>
<path d="M52.4598 24.3901L67.3398 62.0101H59.5999L57.3199 56.3201H39.7999L37.5999 62.0101H29.8398L44.7498 24.4301L52.4598 24.3901ZM42.5999 49.1801H54.5298L48.5999 33.5401L42.5999 49.1801Z" fill="#1A1A1A"/>
<path d="M102.2 24.3701V44.7501C102.2 54.4201 95.9196 61.9701 85.9096 61.9701C76.1896 61.9701 69.6396 54.5501 69.6396 44.7501V24.3701H77.4997V44.3701C77.4997 49.3701 80.0097 54.6901 85.9297 54.6901C91.5097 54.6901 94.3396 49.7901 94.3396 44.3701V24.3701H102.2Z" fill="#1A1A1A"/>
<path d="M133.43 62.0099L124.52 46.7799H117.52V62.0099H109.69V24.4199H128.79C135.13 24.4199 140.19 28.7999 140.19 35.6599C140.19 40.5599 137.8 44.1999 132.88 46.0099L142.2 62.0099H133.43ZM117.6 39.6699H127.9C130.15 39.6699 132.59 38.2799 132.59 35.6699C132.59 33.0599 130.28 31.6699 127.87 31.6699H117.6V39.6699Z" fill="#1A1A1A"/>
<path d="M174.32 24.3901V31.6301H155.75V37.8101H169.6V45.0101H155.75V54.7001H174.32V62.0101H147.89V24.3901H174.32Z" fill="#1A1A1A"/>
<path d="M188.6 24.3701V54.7101H207.2V62.0101H180.77V24.4101L188.6 24.3701Z" fill="#1A1A1A"/>
<path d="M60.4401 7.16006C60.4352 8.18147 60.2102 9.18985 59.7805 10.1165C59.3508 11.0432 58.7265 11.8664 57.9501 12.5301L59.6901 14.8501L58.6901 15.5601L56.9601 13.2101C55.8302 13.9273 54.5184 14.3055 53.1801 14.3001C51.7715 14.2843 50.399 13.8522 49.2354 13.0581C48.0718 12.264 47.1691 11.1434 46.6409 9.83744C46.1128 8.53146 45.9827 7.09844 46.2672 5.71873C46.5517 4.33901 47.2379 3.07428 48.2396 2.08372C49.2412 1.09316 50.5135 0.421045 51.8963 0.151969C53.2791 -0.117108 54.7106 0.0288739 56.0106 0.571555C57.3107 1.11424 58.4211 2.02936 59.2021 3.20173C59.9832 4.3741 60.4 5.75132 60.4001 7.16006H60.4401ZM53.2201 13.1601C54.4068 13.1601 55.5669 12.8082 56.5536 12.1489C57.5402 11.4896 58.3093 10.5525 58.7634 9.45617C59.2175 8.35981 59.3363 7.15341 59.1048 5.98952C58.8733 4.82564 58.3019 3.75654 57.4628 2.91743C56.6236 2.07831 55.5545 1.50686 54.3907 1.27535C53.2268 1.04384 52.0204 1.16266 50.924 1.61678C49.8277 2.07091 48.8906 2.83994 48.2313 3.82664C47.572 4.81333 47.2201 5.97337 47.2201 7.16006C47.2148 7.95135 47.3661 8.73587 47.6653 9.46845C47.9645 10.201 48.4056 10.8672 48.9633 11.4286C49.521 11.99 50.1842 12.4355 50.9148 12.7395C51.6453 13.0436 52.4288 13.2001 53.2201 13.2001V13.1601Z" fill="#1A1A1A"/>
<path d="M77.0701 0.00976562V9.00977C77.1011 9.72048 76.9879 10.4301 76.7373 11.0959C76.4867 11.7617 76.1038 12.3698 75.6119 12.8837C75.1199 13.3975 74.529 13.8065 73.8748 14.0859C73.2206 14.3652 72.5165 14.5093 71.8051 14.5093C71.0938 14.5093 70.3897 14.3652 69.7355 14.0859C69.0813 13.8065 68.4904 13.3975 67.9984 12.8837C67.5065 12.3698 67.1236 11.7617 66.873 11.0959C66.6224 10.4301 66.5092 9.72048 66.5402 9.00977V0.00976562H67.7201V8.91977C67.6928 9.47189 67.7779 10.0238 67.9704 10.542C68.1628 11.0602 68.4585 11.5339 68.8396 11.9344C69.2207 12.3348 69.6792 12.6537 70.1873 12.8715C70.6953 13.0894 71.2424 13.2017 71.7952 13.2017C72.348 13.2017 72.895 13.0894 73.403 12.8715C73.9111 12.6537 74.3696 12.3348 74.7507 11.9344C75.1318 11.5339 75.4275 11.0602 75.6199 10.542C75.8124 10.0238 75.8975 9.47189 75.8702 8.91977V0.00976562H77.0701Z" fill="#1A1A1A"/>
<path d="M83.8701 0.00976562H85.0601V14.2898H83.8701V0.00976562Z" fill="#1A1A1A"/>
<path d="M103.34 0.00976562V14.2898H102.54L93.2198 2.07977V14.2898H92.0498V0.00976562H92.8498L102.16 12.2298V0.00976562H103.34Z" fill="#1A1A1A"/>
<path d="M123.72 9.2801C123.188 10.9067 122.096 12.2921 120.64 13.1907C119.184 14.0893 117.456 14.443 115.763 14.1889C114.071 13.9348 112.523 13.0894 111.395 11.8027C110.267 10.516 109.631 8.87118 109.6 7.16009C109.624 5.44656 110.255 3.7972 111.381 2.50535C112.507 1.2135 114.055 0.36294 115.749 0.104975C117.443 -0.15299 119.174 0.198357 120.633 1.09652C122.093 1.99469 123.186 3.38144 123.72 5.0101L122.59 5.3601C122.163 3.97562 121.255 2.79 120.028 2.01878C118.802 1.24756 117.34 0.941921 115.907 1.15742C114.475 1.37292 113.167 2.09524 112.222 3.19311C111.277 4.29098 110.757 5.6915 110.757 7.1401C110.757 8.5887 111.277 9.98921 112.222 11.0871C113.167 12.1849 114.475 12.9073 115.907 13.1228C117.34 13.3383 118.802 13.0326 120.028 12.2614C121.255 11.4902 122.163 10.3046 122.59 8.9201L123.72 9.2801Z" fill="#1A1A1A"/>
<path d="M140.5 0.00976562V14.2998H139.31V7.05977H130.99V14.2998H129.81V0.00976562H130.99V5.92976H139.31V0.00976562H140.5Z" fill="#1A1A1A"/>
<path d="M153.97 0.00994027C155.381 0.0217856 156.758 0.451176 157.926 1.24399C159.094 2.03681 160.001 3.15759 160.533 4.46508C161.065 5.77257 161.198 7.20827 160.915 8.59125C160.632 9.97424 159.947 11.2426 158.944 12.2366C157.942 13.2305 156.668 13.9056 155.283 14.1766C153.897 14.4477 152.463 14.3026 151.16 13.7597C149.857 13.2169 148.744 12.3004 147.961 11.126C147.178 9.95149 146.76 8.5715 146.76 7.15993C146.761 6.21629 146.949 5.28221 147.312 4.4114C147.676 3.54059 148.208 2.75024 148.878 2.08578C149.548 1.42131 150.343 0.895849 151.217 0.539603C152.091 0.183357 153.026 0.00334967 153.97 0.00994027ZM153.97 13.1999C155.156 13.1999 156.317 12.848 157.303 12.1888C158.29 11.5295 159.059 10.5924 159.513 9.49604C159.967 8.39968 160.086 7.19328 159.854 6.0294C159.623 4.86551 159.052 3.79641 158.212 2.9573C157.373 2.11818 156.304 1.54673 155.14 1.31522C153.976 1.08371 152.77 1.20254 151.674 1.65667C150.577 2.11079 149.64 2.87983 148.981 3.86652C148.322 4.85322 147.97 6.01325 147.97 7.19994C147.97 8.79124 148.602 10.3174 149.727 11.4426C150.852 12.5678 152.378 13.1999 153.97 13.1999Z" fill="#1A1A1A"/>
<path d="M87.5398 72.7002H76.8398V83.4002H87.5398V72.7002Z" fill="#1A1A1A"/>
<path d="M108.95 72.7002H98.25V83.4002H108.95V72.7002Z" fill="#1A1A1A"/>
<path d="M129.72 73.3402V82.7602H120.3V73.3402H129.72ZM130.36 72.7002H119.66V83.4002H130.36V72.7002Z" fill="#1A1A1A"/>
</g>
<defs>
<clipPath id="clip0_352:1153">
<rect width="207.21" height="83.4" fill="white"/>
</clipPath>
</defs>
</svg>
