<svg xmlns="http://www.w3.org/2000/svg" width="70" height="63" viewBox="0 0 70 63" fill="none"><path d="M45.8789 0C33.5739 0 23.5506 8.49805 22.7357 19.2023C11.0012 19.7743 0 28.2724 0 39.7121C0 44.5331 1.87427 49.1089 5.29686 52.786C5.94878 55.5642 5.13388 58.5875 3.09662 60.6303C2.68917 61.0389 2.60768 61.6109 2.77066 62.1012C3.01513 62.5914 3.50407 62.9183 3.99302 62.9183C7.90454 62.9183 11.6531 61.3658 14.4237 58.6693C17.1129 59.5681 20.6985 60.1401 23.9581 60.1401C36.3446 60.3035 46.4494 51.8054 47.2643 41.1012C50.1164 40.9377 53.1315 40.4475 55.4948 39.6303C58.2654 42.3268 62.014 43.8794 65.9255 43.8794C66.4959 43.8794 66.9849 43.5525 67.1479 43.0623C67.3923 42.572 67.2293 42 66.8219 41.5914C64.7846 39.5486 63.9697 36.5253 64.6217 33.7471C68.0442 30.07 69.9185 25.4125 69.9185 20.6732C70 8.66148 58.1024 0 45.8789 0ZM24.0396 57.5253C20.78 57.5253 17.1129 56.8716 14.6682 55.8911C14.1793 55.6459 13.5274 55.8093 13.1199 56.2179C11.4901 58.0156 9.28987 59.323 7.00815 59.8949C8.31199 57.4436 8.63795 54.5019 7.82305 51.7237C7.74156 51.4786 7.66007 51.3152 7.49709 51.1517C4.40047 47.965 2.68917 43.8794 2.68917 39.7121C2.68917 30.07 12.468 21.8988 24.0396 21.8988C34.9593 21.8988 44.5751 29.4981 44.5751 39.7121C44.5751 49.5175 35.3667 57.5253 24.0396 57.5253ZM62.4214 32.0311C62.2584 32.1946 62.1769 32.358 62.0955 32.6031C61.2806 35.3813 61.6065 38.323 62.9104 40.7743C60.5471 40.2023 58.4284 38.8949 56.7986 37.0973C56.3912 36.6887 55.8207 36.5253 55.2503 36.7704C53.1315 37.5875 50.0349 38.2412 47.1828 38.323C46.7753 33.1751 44.1676 28.2724 39.7672 24.677H57.6135C58.3469 24.677 58.9988 24.0233 58.9988 23.2879C58.9988 22.5525 58.3469 21.8988 57.6135 21.8988H35.6112C32.5146 20.3463 29.0105 19.3658 25.4249 19.2023C26.2398 9.96887 35.0407 2.6965 45.8789 2.6965C57.4505 2.6965 67.2293 10.8677 67.2293 20.5097C67.2293 24.7588 65.518 28.8444 62.4214 32.0311Z" fill="#A8A8A8"></path><path d="M34.9591 35.6265H17.7647C17.0313 35.6265 16.3794 36.2802 16.3794 37.0156C16.3794 37.751 17.0313 38.4047 17.7647 38.4047H34.9591C35.6926 38.4047 36.3445 37.751 36.3445 37.0156C36.3445 36.1984 35.774 35.6265 34.9591 35.6265Z" fill="#A8A8A8"></path><path d="M34.9593 43.8794H12.305C11.5716 43.8794 10.9197 44.5331 10.9197 45.2685C10.9197 46.0039 11.5716 46.6576 12.305 46.6576H34.9593C35.6927 46.6576 36.3446 46.0039 36.3446 45.2685C36.3446 44.4514 35.7742 43.8794 34.9593 43.8794Z" fill="#A8A8A8"></path><path d="M57.6949 13.7277H40.419C39.6856 13.7277 39.0337 14.3814 39.0337 15.1168C39.0337 15.8522 39.6856 16.5059 40.419 16.5059H57.6134C58.3468 16.5059 58.9988 15.8522 58.9988 15.1168C58.9988 14.2996 58.4283 13.7277 57.6949 13.7277Z" fill="#A8A8A8"></path></svg>