<svg xmlns="http://www.w3.org/2000/svg" width="63" height="64" viewBox="0 0 63 64" fill="none"><path d="M23.1216 13.7494C23.1216 21.3606 29.1638 27.4987 36.6561 27.4987C44.1484 27.4987 50.1906 21.3606 50.1906 13.7494C50.1906 6.13811 44.1484 0 36.6561 0C29.1638 0 23.1216 6.13811 23.1216 13.7494ZM47.6932 13.7494C47.6932 19.9693 42.6983 24.9616 36.6561 24.9616C30.6139 24.9616 25.619 19.8875 25.619 13.7494C25.619 7.52941 30.6139 2.53708 36.6561 2.53708C42.6983 2.53708 47.6932 7.52941 47.6932 13.7494Z" fill="#A8A8A8"></path><path d="M14.179 63.5908C14.6624 64.0819 15.468 64.0819 15.9514 63.5908L21.913 57.6164C22.9604 56.5525 23.2021 55.0793 22.7992 53.7699L24.0882 52.5422C24.8133 51.8875 25.6995 51.4783 26.6662 51.4783H43.0205C45.9207 51.4783 48.6599 50.3325 50.7545 48.2865C50.835 48.2046 50.11 49.1049 61.8721 34.7826C63.6445 32.6548 63.3223 29.5448 61.3082 27.7443C59.2136 25.9438 56.1522 26.2711 54.3798 28.3172L47.1292 35.9284C46.243 34.7826 44.7928 34.0461 43.3427 34.0461H29.6471C27.7136 33.2277 25.6189 32.8185 23.5243 32.8185C17.5627 32.8185 12.4067 35.6011 9.66752 40.8389C8.45908 40.5934 7.25064 41.0026 6.36446 41.9029L0.483382 47.8773C5.61774e-06 48.3683 5.61774e-06 49.1867 0.483382 49.6778L14.179 63.5908ZM23.3632 35.2737C25.2161 35.2737 27.0691 35.6829 28.7609 36.4195C28.922 36.5013 29.0831 36.5013 29.2442 36.5013H43.1816C44.5512 36.5013 45.679 37.6471 45.679 39.0384C45.679 40.4297 44.5512 41.5755 43.1816 41.5755H33.1918C32.5473 41.5755 31.9834 42.1484 31.9834 42.8031C31.9834 43.4578 32.5473 44.0307 33.1918 44.0307H43.2622C46.0013 44.0307 48.1765 41.821 48.1765 39.0384C48.1765 38.7929 48.1765 38.6292 48.0959 38.3837C55.1049 31.0179 56.0716 30.0358 56.1522 29.954C57.0384 28.8901 58.5691 28.8082 59.6164 29.6266C60.6637 30.5269 60.7442 32.0819 59.9386 33.1458L48.9015 46.5678C47.2903 48.1228 45.1957 49.0231 42.9399 49.0231H26.5857C24.9744 49.0231 23.4437 49.6778 22.3159 50.7417L21.2685 51.8057L11.601 41.9847C13.8568 37.6471 18.1266 35.2737 23.3632 35.2737ZM7.97571 43.5397C8.37852 43.1305 9.02302 43.0486 9.5064 43.376C9.74809 43.5397 9.10359 42.9668 20.1407 54.1791C20.624 54.6701 20.624 55.4885 20.1407 55.9796L15.0652 61.0537L2.98082 48.6957L7.97571 43.5397Z" fill="#A8A8A8"></path><path d="M35.2058 6.21993V7.69308C33.7557 8.18413 32.7084 9.57543 32.7084 11.2123C32.7084 13.2583 34.4002 14.977 36.4142 14.977C37.0587 14.977 37.6227 15.5499 37.6227 16.2046C37.6227 16.8593 37.0587 17.4322 36.4142 17.4322C35.8503 17.4322 35.2864 17.1048 34.803 16.4501C34.4002 15.9591 33.5945 15.8772 33.0306 16.2864C32.5472 16.6956 32.4667 17.514 32.8695 18.0869C33.514 18.9054 34.3196 19.3964 35.1252 19.7238V21.2788C35.1252 21.9335 35.6892 22.5064 36.3337 22.5064C36.9782 22.5064 37.5421 21.9335 37.5421 21.2788V19.8056C38.9922 19.3146 40.0396 17.9233 40.0396 16.2864C40.0396 14.2404 38.3477 12.5217 36.3337 12.5217C35.6892 12.5217 35.1252 11.9488 35.1252 11.2941C35.1252 10.6394 35.6892 10.0665 36.3337 10.0665C36.7365 10.0665 37.2199 10.312 37.7032 10.7212C38.1866 11.2123 38.9922 11.2123 39.4756 10.7212C39.959 10.2302 39.959 9.41175 39.4756 8.9207C38.8311 8.34781 38.1866 7.9386 37.7032 7.77492V6.21993C37.7032 5.5652 37.1393 4.99231 36.4948 4.99231C35.7697 4.99231 35.2058 5.5652 35.2058 6.21993Z" fill="#A8A8A8"></path></svg>