<svg xmlns="http://www.w3.org/2000/svg" width="63" height="50" viewBox="0 0 63 50" fill="none"><path d="M21.3531 22.8525H41.5652C42.2172 22.8525 42.7877 22.2852 42.7877 21.6369C42.7877 15.8833 38.4682 12.3176 31.5406 12.3176C24.6131 12.3176 20.2936 15.8833 20.2936 21.6369C20.2121 22.3663 20.7011 22.8525 21.3531 22.8525ZM31.4591 14.7487C33.4152 14.7487 39.5277 15.1539 40.2612 20.5024H22.6571C23.4721 15.235 29.5031 14.7487 31.4591 14.7487Z" fill="#A8A8A8"></path><path d="M31.4592 11.1831C34.5563 11.1831 37.0828 8.67099 37.0828 5.59157C37.0828 2.51216 34.6378 0 31.4592 0C28.3622 0 25.8357 2.51216 25.8357 5.59157C25.8357 8.67099 28.3622 11.1831 31.4592 11.1831ZM31.4592 2.35008C33.2522 2.35008 34.7193 3.80875 34.7193 5.59157C34.7193 7.37439 33.2522 8.83306 31.4592 8.83306C29.6662 8.83306 28.1992 7.37439 28.1992 5.59157C28.1992 3.80875 29.6662 2.35008 31.4592 2.35008Z" fill="#A8A8A8"></path><path d="M11.2471 39.5461C4.31953 39.5461 0 43.1118 0 48.8654C0 49.5137 0.570504 50.081 1.22251 50.081H21.4347C22.0867 50.081 22.6572 49.5137 22.6572 48.8654C22.5757 43.1118 18.2561 39.5461 11.2471 39.5461ZM2.44502 47.6499C3.26003 42.3824 9.29107 41.8962 11.2471 41.8962C13.2031 41.8962 19.3157 42.3014 20.0492 47.6499H2.44502Z" fill="#A8A8A8"></path><path d="M11.2471 38.4117C14.3441 38.4117 16.8706 35.8995 16.8706 32.8201C16.8706 29.7407 14.3441 27.2285 11.2471 27.2285C8.15006 27.2285 5.62354 29.7407 5.62354 32.8201C5.62354 35.8995 8.15006 38.4117 11.2471 38.4117ZM11.2471 29.4976C13.0401 29.4976 14.5071 30.9562 14.5071 32.7391C14.5071 34.5219 13.0401 35.9805 11.2471 35.9805C9.45407 35.9805 7.98705 34.5219 7.98705 32.7391C7.98705 30.9562 9.45407 29.4976 11.2471 29.4976Z" fill="#A8A8A8"></path><path d="M51.6714 39.5461C44.7439 39.5461 40.4243 43.1118 40.4243 48.8654C40.4243 49.5137 40.9948 50.081 41.6468 50.081H61.859C62.511 50.081 63.0815 49.5137 63.0815 48.8654C63 43.1118 58.599 39.5461 51.6714 39.5461ZM42.8693 47.6499C43.6843 42.3824 49.7154 41.8962 51.6714 41.8962C53.6274 41.8962 59.74 42.3014 60.4735 47.6499H42.8693Z" fill="#A8A8A8"></path><path d="M51.6714 38.4117C54.7684 38.4117 57.2949 35.8995 57.2949 32.8201C57.2949 29.7407 54.7684 27.2285 51.6714 27.2285C48.5744 27.2285 46.0479 29.7407 46.0479 32.8201C46.0479 35.8995 48.5744 38.4117 51.6714 38.4117ZM51.6714 29.4976C53.4644 29.4976 54.9314 30.9562 54.9314 32.7391C54.9314 34.5219 53.4644 35.9805 51.6714 35.9805C49.8784 35.9805 48.4114 34.5219 48.4114 32.7391C48.4114 30.9562 49.8784 29.4976 51.6714 29.4976Z" fill="#A8A8A8"></path><path d="M32.6817 32.577V25.6078C32.6817 24.9595 32.1112 24.3922 31.4592 24.3922C30.8072 24.3922 30.2367 24.9595 30.2367 25.6078V32.577L25.2652 37.5203C24.7762 38.0065 24.7762 38.7358 25.2652 39.222C25.7542 39.7083 26.4877 39.7083 26.9767 39.222L31.4592 34.765L35.9418 39.222C36.4308 39.6272 37.1643 39.6272 37.6533 39.06C38.0608 38.6548 38.0608 37.9254 37.6533 37.5203L32.6817 32.577Z" fill="#A8A8A8"></path></svg>