<svg xmlns="http://www.w3.org/2000/svg" width="58" height="65" viewBox="0 0 58 65" fill="none"><path d="M51.7475 22.2305C51.7475 9.98761 41.5461 0 29.0411 0C16.5362 0 6.33475 9.98761 6.33475 22.2305C3.12624 22.6332 0 24.7274 0 29.4796V41.0781C0 46.4746 3.86667 48.4882 7.56879 48.4882H11.1887C11.8468 48.4882 12.4227 47.9244 12.4227 47.2801V23.3581C12.4227 22.7138 11.8468 22.1499 11.1887 22.1499H8.80284C8.80284 11.2763 17.8525 2.41636 29.0411 2.41636C40.2298 2.41636 49.1972 11.2763 49.1972 22.1499H46.8114C46.1532 22.1499 45.5773 22.7138 45.5773 23.3581V47.1995C45.5773 47.8439 46.1532 48.4077 46.8114 48.4077H49.1972C48.8681 56.8649 44.6723 58.8786 36.3631 59.2007V58.3953C36.3631 57.026 35.2113 55.8984 33.8128 55.8984H25.9149C24.5163 55.8984 23.3645 57.026 23.3645 58.3953V62.4226C23.3645 63.7918 24.5163 64.9195 25.9149 64.9195H33.895C35.2936 64.9195 36.4454 63.7918 36.4454 62.4226V61.6976C44.4255 61.3755 51.3362 59.684 51.7475 48.3271C54.956 47.9244 58.0823 45.8302 58.0823 41.0781V29.5601C58 24.7274 54.956 22.6332 51.7475 22.2305ZM9.95461 24.5663V46.0719H7.48653C5.6766 46.0719 2.46809 45.4275 2.46809 41.0781V29.4796C2.46809 25.2107 5.59433 24.5663 7.48653 24.5663H9.95461ZM33.895 60.6506V62.5031H25.9149V58.4758H33.895V60.6506ZM55.5319 41.1586C55.5319 45.4275 52.4057 46.0719 50.5135 46.0719H48.1277V24.6468H50.5957C52.4879 24.6468 55.6142 25.2912 55.6142 29.5601L55.5319 41.1586Z" fill="#A8A8A8"></path></svg>