<svg xmlns="http://www.w3.org/2000/svg" width="61" height="62" viewBox="0 0 61 62" fill="none"><path d="M59.8691 6.98013L54.2943 6.81589L54.1327 1.14967C54.1327 0.492715 53.5672 0 52.9208 0C52.5976 0 52.3552 0.164238 52.1128 0.328477L42.0135 10.6755C41.7711 10.9219 41.6903 11.2503 41.6903 11.5788V12.8106C29.5711 4.2702 13.0082 7.39073 4.68636 19.6265C-3.6355 31.9444 -0.565299 48.6967 11.4731 57.155C23.5923 65.6132 40.0744 62.4927 48.3963 50.257C54.6175 41.0596 54.6175 28.8238 48.3963 19.6265H49.6082C49.9314 19.6265 50.2546 19.5444 50.4162 19.298L60.5963 8.95099C61.0811 8.45828 61.0811 7.71921 60.5963 7.22649C60.4347 7.06225 60.1115 6.89801 59.8691 6.98013ZM50.8201 34.9828C50.8201 48.6146 39.9936 59.6185 26.5817 59.6185C13.1698 59.6185 2.34331 48.6146 2.34331 34.9828C2.34331 21.351 13.1698 10.347 26.5817 10.347C32.1566 10.347 37.489 12.2358 41.8519 15.7669L41.9327 17.7377L37.1658 22.5828C30.4599 16.5881 20.2797 17.3272 14.3817 24.143C8.48371 30.9589 9.21086 41.306 15.9168 47.3007C22.6228 53.2954 32.8029 52.5563 38.7009 45.7404C43.9526 39.5815 44.0334 30.4662 38.8625 24.3073L43.5486 19.5444L45.4877 19.6265C48.8811 23.9788 50.8201 29.3987 50.8201 34.9828ZM25.8546 35.804C26.3393 36.2967 27.0665 36.2967 27.5513 35.804L29.8943 33.4225C30.1367 33.9152 30.2175 34.4079 30.2175 34.9828C30.2175 36.9536 28.6016 38.596 26.6625 38.596C24.7234 38.596 23.1075 36.9536 23.1075 34.9828C23.1075 33.0119 24.7234 31.3695 26.6625 31.3695C27.2281 31.3695 27.7128 31.5338 28.1976 31.698L25.8546 34.0795C25.3698 34.5722 25.3698 35.3113 25.8546 35.804ZM29.8943 29.8914C27.1473 28.0848 23.5115 28.8238 21.734 31.6159C19.9566 34.4079 20.6837 38.1033 23.4307 39.9099C26.1777 41.7166 29.8135 40.9775 31.591 38.1854C32.8837 36.2146 32.8837 33.5868 31.591 31.6159L37.1658 25.9497C42.0943 31.8623 41.2864 40.649 35.4691 45.6583C29.6519 50.6675 21.0069 49.8464 16.0784 43.9338C11.1499 38.0212 11.9579 29.2344 17.7751 24.2252C22.8652 19.8728 30.3791 19.8728 35.4691 24.2252L29.8943 29.8914ZM49.2042 17.245L44.195 17.0808L44.0334 11.9894L51.9513 3.94172L52.1128 7.96556C52.1128 8.62252 52.6784 9.19735 53.3248 9.19735L57.2837 9.36159L49.2042 17.245Z" fill="#A8A8A8"></path></svg>