<svg xmlns="http://www.w3.org/2000/svg" width="86" height="84" viewBox="0 0 86 84" fill="none">
  <path d="M60.2 0C52.6148 0 46.44 6.20771 46.44 13.8333V36.3125H49.88V13.8333C49.88 8.07521 54.4724 3.45833 60.2 3.45833H70.52C76.2476 3.45833 80.84 8.07521 80.84 13.8333V36.3125H84.28V13.8333C84.28 6.20771 78.1052 0 70.52 0H60.2ZM12.04 19.0208C7.31 19.0208 3.44 22.9115 3.44 27.6667V47.4137C1.5308 48.1746 0 49.7135 0 51.875C0 54.0365 1.4448 56.025 3.44 56.734V62.25C3.44 67.2127 6.0716 71.5702 9.9932 74.0083C9.804 74.3542 9.5976 74.7865 9.4256 75.3225C8.9956 76.6021 8.6 78.5215 8.6 81.2881C8.6 82.2392 9.374 83.0173 10.32 83.0173H29.24C30.186 83.0173 30.96 82.2392 30.96 81.2881C30.96 78.5387 30.5644 76.6021 30.1344 75.3225C29.9624 74.7865 29.756 74.3542 29.5668 74.0083C33.4884 71.5702 36.12 67.2127 36.12 62.25V56.734C38.1152 56.0077 39.56 54.1056 39.56 51.875C39.56 49.6444 38.0292 48.1746 36.12 47.4137V27.6667C36.12 22.9115 32.25 19.0208 27.52 19.0208H12.04ZM12.04 22.4792H27.52C30.3924 22.4792 32.68 24.779 32.68 27.6667V46.6875H6.88V27.6667C6.88 24.779 9.1676 22.4792 12.04 22.4792ZM61.06 22.4792C57.7576 22.4792 55.04 25.2113 55.04 28.5312V29.3958C55.04 30.3469 55.7796 31.1423 56.7428 31.1423C57.6888 31.1423 58.48 30.3988 58.48 29.4304C58.48 29.4304 58.48 29.3958 58.48 29.3785V28.514C58.48 27.0615 59.6152 25.9202 61.06 25.9202C62.5048 25.9202 63.64 27.0615 63.64 28.514V39.7535H60.2V38.0244C60.2 37.0733 59.4604 36.2779 58.4972 36.2779C58.4972 36.2779 58.4628 36.2779 58.4456 36.2779C57.4996 36.2779 56.7428 37.0733 56.76 38.0244V39.7535H46.44C45.494 39.7535 44.72 40.5317 44.72 41.4827C44.72 41.6383 44.7372 41.794 44.7888 41.9496C46.3712 47.7423 51.1356 51.8404 56.8288 53.0508L58.48 81.3573C58.5316 82.2738 59.2884 82.9827 60.2 82.9827H70.52C71.4316 82.9827 72.1884 82.2738 72.24 81.3573L73.8912 53.0508C79.6016 51.8404 84.3488 47.7423 85.9312 41.9496C86.1892 41.0331 85.6388 40.0821 84.7272 39.8227C84.5724 39.7881 84.4176 39.7535 84.2628 39.7535H73.9428V38.0244C73.9428 37.0733 73.2032 36.2779 72.24 36.2779C72.24 36.2779 72.2056 36.2779 72.1884 36.2779C71.2424 36.2779 70.4856 37.0733 70.5028 38.0244V39.7535H67.0628V28.514C67.0628 25.194 64.3452 22.4619 61.0428 22.4619L61.06 22.4792ZM49.106 43.2292H81.614C79.55 47.3446 75.4392 50.1458 70.6576 50.1458H60.0624C55.2808 50.1458 51.17 47.3446 49.106 43.2292ZM5.16 50.1458H34.4C35.3804 50.1458 36.12 50.8894 36.12 51.875C36.12 52.8606 35.3804 53.6042 34.4 53.6042H5.16C4.1796 53.6042 3.44 52.8606 3.44 51.875C3.44 50.8894 4.1796 50.1458 5.16 50.1458ZM60.3032 53.6042H70.4168L68.9032 79.5417H61.834L60.3204 53.6042H60.3032ZM6.88 57.0625H32.68V62.25C32.68 68.0081 28.0876 72.625 22.36 72.625H17.2C11.4724 72.625 6.88 68.0081 6.88 62.25V57.0625ZM13.1064 75.4608C14.3964 75.8758 15.7724 76.0833 17.2 76.0833H22.36C23.7876 76.0833 25.1636 75.8585 26.4536 75.4608C26.4536 75.4608 26.574 75.53 26.8664 76.4119C27.0556 76.9825 27.1588 78.3658 27.2792 79.5244H12.2636C12.384 78.3485 12.4872 76.9652 12.6764 76.4119C12.9688 75.53 13.0892 75.4608 13.0892 75.4608H13.1064Z" fill="#1A1A1A"/>
</svg>