<svg xmlns="http://www.w3.org/2000/svg" width="112" height="79" viewBox="0 0 112 79" fill="none">
  <path fill-rule="evenodd" clip-rule="evenodd" d="M110.894 59.3847C111.104 59.4744 111.3 59.6016 111.481 59.7662C111.646 59.9457 111.774 60.1402 111.865 60.3497C111.955 60.5741 112 60.8061 112 61.0455V68.2273C112 68.4667 111.955 68.6986 111.865 68.923C111.774 69.1325 111.646 69.327 111.481 69.5065C111.3 69.6711 111.104 69.7983 110.894 69.8881C110.668 69.9778 110.434 70.0227 110.194 70.0227H108.387V77.2045C108.387 77.4439 108.342 77.6758 108.252 77.9003C108.161 78.1098 108.033 78.3043 107.868 78.4838C107.687 78.6484 107.491 78.7756 107.281 78.8653C107.055 78.9551 106.822 79 106.581 79H101.161C100.951 79 100.747 78.9626 100.552 78.8878C100.356 78.8279 100.175 78.7307 100.01 78.596C99.8591 78.4614 99.7237 78.3043 99.6032 78.1247C99.4978 77.9452 99.4301 77.7581 99.4 77.5636L97.8645 70.0227H14.1355L12.6 77.5636C12.5699 77.7581 12.5022 77.9452 12.3968 78.1247C12.2763 78.3043 12.1409 78.4614 11.9903 78.596C11.8247 78.7307 11.6441 78.8279 11.4484 78.8878C11.2527 78.9626 11.0495 79 10.8387 79H5.41935C5.17849 79 4.94516 78.9551 4.71935 78.8653C4.5086 78.7756 4.3129 78.6484 4.13226 78.4838C3.96667 78.3043 3.83871 78.1098 3.74839 77.9003C3.65806 77.6758 3.6129 77.4439 3.6129 77.2045V70.0227H1.80645C1.56559 70.0227 1.33226 69.9778 1.10645 69.8881C0.895699 69.7983 0.7 69.6711 0.519355 69.5065C0.353763 69.327 0.225807 69.1325 0.135484 68.923C0.0451614 68.6986 0 68.4667 0 68.2273V61.0455C0 60.8061 0.0451614 60.5741 0.135484 60.3497C0.225807 60.1402 0.353763 59.9457 0.519355 59.7662C0.7 59.6016 0.895699 59.4744 1.10645 59.3847C1.33226 59.2949 1.56559 59.25 1.80645 59.25H3.6129V44.8864C3.6129 43.9437 3.79355 43.0011 4.15484 42.1483C4.53871 41.273 5.05806 40.4875 5.73548 39.8142C6.4129 39.1409 7.20323 38.6247 8.08387 38.2432C8.94193 37.8841 9.89032 37.7045 10.8387 37.7045V7.18182C10.8387 6.2392 11.0194 5.29659 11.3806 4.44375C11.7645 3.56847 12.2839 2.78295 12.9613 2.10966C13.6387 1.43636 14.429 0.920171 15.3097 0.538637C16.1677 0.179546 17.1161 0 18.0645 0H93.9355C94.8839 0 95.8323 0.179546 96.6903 0.538637C97.571 0.920171 98.3613 1.43636 99.0387 2.10966C99.7161 2.78295 100.235 3.56847 100.619 4.44375C100.981 5.29659 101.161 6.2392 101.161 7.18182V37.7045C102.11 37.7045 103.058 37.8841 103.916 38.2432C104.797 38.6247 105.587 39.1409 106.265 39.8142C106.942 40.4875 107.461 41.273 107.845 42.1483C108.206 43.0011 108.387 43.9437 108.387 44.8864V59.25H110.194C110.434 59.25 110.668 59.2949 110.894 59.3847ZM14.4516 37.7045H18.0645V30.5227C18.0645 29.5801 18.2452 28.6375 18.6065 27.7847C18.9903 26.9094 19.5097 26.1239 20.1871 25.4506C20.8645 24.7773 21.6548 24.2611 22.5355 23.8795C23.3935 23.5205 24.3419 23.3409 25.2903 23.3409H46.9677C47.9161 23.3409 48.8645 23.5205 49.7226 23.8795C50.6032 24.2611 51.3935 24.7773 52.071 25.4506C52.7484 26.1239 53.2677 26.9094 53.6516 27.7847C54.0129 28.6375 54.1935 29.5801 54.1935 30.5227V37.7045H57.8064V30.5227C57.8064 29.5801 57.9871 28.6375 58.3484 27.7847C58.7323 26.9094 59.2516 26.1239 59.929 25.4506C60.6064 24.7773 61.3968 24.2611 62.2774 23.8795C63.1355 23.5205 64.0839 23.3409 65.0323 23.3409H86.7097C87.6581 23.3409 88.6065 23.5205 89.4645 23.8795C90.3452 24.2611 91.1355 24.7773 91.8129 25.4506C92.4903 26.1239 93.0097 26.9094 93.3935 27.7847C93.7548 28.6375 93.9355 29.5801 93.9355 30.5227V37.7045H97.5484V7.18182C97.5484 6.71051 97.4581 6.2392 97.2774 5.81278C97.0968 5.36392 96.8258 4.98239 96.4871 4.64574C96.1484 4.30909 95.7645 4.03977 95.3129 3.86023C94.8839 3.68068 94.4097 3.59091 93.9355 3.59091H18.0645C17.5903 3.59091 17.1161 3.68068 16.6871 3.86023C16.2355 4.03977 15.8516 4.30909 15.5129 4.64574C15.1742 4.98239 14.9032 5.36392 14.7226 5.81278C14.5419 6.2392 14.4516 6.71051 14.4516 7.18182V37.7045ZM90.0516 29.1537C89.871 28.7048 89.6 28.3233 89.2613 27.9866C88.9226 27.65 88.5387 27.3807 88.0871 27.2011C87.6581 27.0216 87.1839 26.9318 86.7097 26.9318H65.0323C64.5581 26.9318 64.0839 27.0216 63.6548 27.2011C63.2032 27.3807 62.8194 27.65 62.4806 27.9866C62.1419 28.3233 61.871 28.7048 61.6903 29.1537C61.5097 29.5801 61.4194 30.0514 61.4194 30.5227V37.7045H90.3226V30.5227C90.3226 30.0514 90.2323 29.5801 90.0516 29.1537ZM50.3097 29.1537C50.129 28.7048 49.8581 28.3233 49.5194 27.9866C49.1806 27.65 48.7968 27.3807 48.3452 27.2011C47.9161 27.0216 47.4419 26.9318 46.9677 26.9318H25.2903C24.8161 26.9318 24.3419 27.0216 23.9129 27.2011C23.4613 27.3807 23.0774 27.65 22.7387 27.9866C22.4 28.3233 22.129 28.7048 21.9484 29.1537C21.7677 29.5801 21.6774 30.0514 21.6774 30.5227V37.7045H50.5806V30.5227C50.5806 30.0514 50.4903 29.5801 50.3097 29.1537ZM7.22581 59.25H104.774V44.8864C104.774 44.4151 104.684 43.9437 104.503 43.5173C104.323 43.0685 104.052 42.6869 103.713 42.3503C103.374 42.0136 102.99 41.7443 102.539 41.5648C102.11 41.3852 101.635 41.2955 101.161 41.2955H10.8387C10.3645 41.2955 9.89032 41.3852 9.46129 41.5648C9.00968 41.7443 8.62581 42.0136 8.2871 42.3503C7.94839 42.6869 7.67742 43.0685 7.49677 43.5173C7.31613 43.9437 7.22581 44.4151 7.22581 44.8864V59.25ZM10.4323 70.0227H7.22581V75.4091H9.34839L10.4323 70.0227ZM104.774 70.0227H101.568L102.652 75.4091H104.774V70.0227ZM108.387 62.8409H3.6129V66.4318H108.387V62.8409Z" fill="#1A1A1A"/>
</svg>