<svg xmlns="http://www.w3.org/2000/svg" width="85" height="85" viewBox="0 0 85 85" fill="none">
  <path d="M73.37 11.6302C72.6494 10.9096 71.4778 10.9096 70.7571 11.6302L44.8877 37.4997C44.167 38.2203 44.167 39.3919 44.8877 40.1126C45.2499 40.471 45.7228 40.6522 46.1959 40.6522C46.669 40.6522 47.1419 40.4712 47.5005 40.1126L73.37 14.2431C74.0907 13.5224 74.0907 12.3509 73.37 11.6302Z" fill="#1A1A1A"/>
  <path d="M72.0652 11.087C71.0452 11.087 70.2173 11.9149 70.2173 12.9349V35.1088C70.2173 36.1288 71.0452 36.9567 72.0652 36.9567C73.0852 36.9567 73.913 36.1288 73.913 35.1088V12.9349C73.913 11.9149 73.0852 11.087 72.0652 11.087Z" fill="#1A1A1A"/>
  <path d="M72.0652 11.087H49.8913C48.8713 11.087 48.0435 11.9149 48.0435 12.9349C48.0435 13.9549 48.8713 14.7826 49.8913 14.7826H72.0652C73.0852 14.7826 73.9131 13.9547 73.9131 12.9347C73.9131 11.9147 73.0852 11.087 72.0652 11.087Z" fill="#1A1A1A"/>
  <path d="M40.1093 44.8911C39.3886 44.1704 38.2171 44.1704 37.4964 44.8911L11.6269 70.7606C10.9063 71.4812 10.9063 72.6528 11.6269 73.3734C11.9891 73.7319 12.4621 73.9131 12.9352 73.9131C13.4083 73.9131 13.8812 73.732 14.2398 73.3734L40.1093 47.504C40.8299 46.7833 40.8299 45.6117 40.1093 44.8911Z" fill="#1A1A1A"/>
  <path d="M12.9348 48.0435C11.9148 48.0435 11.0869 48.8713 11.0869 49.8913V72.0652C11.0869 73.0852 11.9148 73.9131 12.9348 73.9131C13.9548 73.9131 14.7825 73.0852 14.7825 72.0652V49.8913C14.7825 48.8713 13.9548 48.0435 12.9348 48.0435Z" fill="#1A1A1A"/>
  <path d="M35.1087 70.2173H12.9348C11.9148 70.2173 11.0869 71.0452 11.0869 72.0652C11.0869 73.0852 11.9148 73.913 12.9348 73.913H35.1087C36.1287 73.913 36.9566 73.0852 36.9566 72.0652C36.9564 71.0452 36.1287 70.2173 35.1087 70.2173Z" fill="#1A1A1A"/>
  <path d="M79.4565 0H5.54347C2.48711 0 0 2.48711 0 5.54347V79.4565C0 82.5129 2.48711 85 5.54347 85H79.4565C82.5129 85 85 82.5129 85 79.4565V5.54347C85 2.48711 82.5127 0 79.4565 0ZM81.3042 79.4565C81.3042 80.4729 80.4727 81.3044 79.4564 81.3044H5.54347C4.52711 81.3044 3.69559 80.4729 3.69559 79.4565V5.54347C3.69559 4.52711 4.52711 3.69559 5.54347 3.69559H79.4565C80.4729 3.69559 81.3044 4.52711 81.3044 5.54347V79.4565H81.3042Z" fill="#1A1A1A"/>
</svg>