<svg xmlns="http://www.w3.org/2000/svg" width="28" height="28" viewBox="0 0 28 28" fill="none"><path d="M14.0542 26.9999C11.4807 27.0106 8.96201 26.2573 6.81706 24.8354C4.67211 23.4135 2.99744 21.3869 2.00519 19.0124C1.01294 16.6379 0.747754 14.0224 1.24323 11.4971C1.7387 8.97177 2.97254 6.65033 4.78845 4.82683C6.60435 3.00332 8.92062 1.7598 11.4438 1.25379C13.9671 0.747776 16.5837 1.00204 18.9623 1.98436C21.3409 2.96669 23.3744 4.63288 24.8053 6.77188C26.2362 8.91088 27 11.4264 27 13.9999C27 17.4383 25.6378 20.7368 23.2116 23.1732C20.7853 25.6096 17.4926 26.9856 14.0542 26.9999ZM14.0542 2.19156C11.6904 2.18091 9.37688 2.87349 7.40778 4.18122C5.43869 5.48895 3.90299 7.35275 2.99599 9.5356C2.08899 11.7184 1.85166 14.1217 2.31418 16.4398C2.7767 18.7579 3.91817 20.8861 5.59345 22.5537C7.26872 24.2213 9.40209 25.3531 11.7223 25.805C14.0425 26.2569 16.4446 26.0085 18.6233 25.0916C20.802 24.1746 22.6587 22.6304 23.9574 20.6553C25.2562 18.6803 25.9381 16.3636 25.9167 13.9999C25.9024 10.8581 24.6481 7.84915 22.4265 5.62758C20.2049 3.40601 17.1959 2.15164 14.0542 2.13739V2.19156Z" fill="white" stroke="white" stroke-width="0.5"></path><path d="M17.8489 11.3761V13.3331H20.8705L20.4712 16.4192H17.8489V25.5269C16.7748 25.8329 15.6639 25.992 14.5468 26H14.6547V16.4299H12V13.3439H14.6547V11.075C14.5995 10.5369 14.6634 9.99336 14.8419 9.48258C15.0204 8.9718 15.3092 8.50624 15.6878 8.1187C16.0664 7.73116 16.5257 7.43108 17.0334 7.23959C17.541 7.0481 18.0846 6.96987 18.6259 7.0104C19.4189 7.00424 20.2116 7.04373 21 7.12869V9.88142H19.3813C18.0971 9.88142 17.8489 10.4728 17.8489 11.3761Z" fill="white"></path></svg>