<svg xmlns="http://www.w3.org/2000/svg" width="25" height="25" viewBox="0 0 25 25" fill="none"><path d="M12.0477 5.85498C10.4054 5.85498 8.83038 6.50737 7.66912 7.66863C6.50786 8.8299 5.85547 10.4049 5.85547 12.0472C5.85547 13.6895 6.50786 15.2645 7.66912 16.4257C8.83038 17.587 10.4054 18.2394 12.0477 18.2394C13.6899 18.2394 15.265 17.587 16.4262 16.4257C17.5875 15.2645 18.2399 13.6895 18.2399 12.0472C18.2399 10.4049 17.5875 8.8299 16.4262 7.66863C15.265 6.50737 13.6899 5.85498 12.0477 5.85498ZM12.0477 16.0686C10.9808 16.0686 9.95755 15.6448 9.20313 14.8904C8.44871 14.136 8.02488 13.1128 8.02488 12.0458C8.02488 10.9789 8.44871 9.95572 9.20313 9.2013C9.95755 8.44688 10.9808 8.02305 12.0477 8.02305C13.1146 8.02305 14.1378 8.44688 14.8922 9.2013C15.6466 9.95572 16.0705 10.9789 16.0705 12.0458C16.0705 13.1128 15.6466 14.136 14.8922 14.8904C14.1378 15.6448 13.1146 16.0686 12.0477 16.0686Z" fill="white"></path><path d="M18.4866 7.07079C19.2838 7.07079 19.9302 6.42447 19.9302 5.62719C19.9302 4.82991 19.2838 4.18359 18.4866 4.18359C17.6893 4.18359 17.043 4.82991 17.043 5.62719C17.043 6.42447 17.6893 7.07079 18.4866 7.07079Z" fill="white"></path><path d="M23.4765 4.15938C23.1665 3.35881 22.6928 2.6318 22.0856 2.02486C21.4784 1.41793 20.7512 0.944459 19.9506 0.634754C19.0136 0.283037 18.0238 0.0928577 17.0232 0.0723136C15.7336 0.0160696 15.3252 0 12.055 0C8.78478 0 8.36563 -1.34695e-07 7.08675 0.0723136C6.08693 0.0918073 5.09779 0.282026 4.16206 0.634754C3.36116 0.944098 2.63378 1.41744 2.02657 2.02442C1.41936 2.6314 0.945741 3.3586 0.636093 4.15938C0.284306 5.09626 0.094563 6.08619 0.074992 7.08675C0.0174089 8.375 0 8.78344 0 12.055C0 15.3252 -9.9774e-09 15.7416 0.074992 17.0232C0.0950792 18.0249 0.283898 19.0132 0.636093 19.9519C0.94661 20.7524 1.42069 21.4793 2.02805 22.0862C2.6354 22.6931 3.36267 23.1666 4.1634 23.4765C5.09736 23.8424 6.0869 24.0462 7.08942 24.0791C8.37902 24.1354 8.78746 24.1528 12.0576 24.1528C15.3278 24.1528 15.747 24.1528 17.0259 24.0791C18.0263 24.0588 19.0161 23.8691 19.9532 23.518C20.7537 23.2076 21.4807 22.7337 22.0878 22.1266C22.6949 21.5195 23.1688 20.7926 23.4792 19.9921C23.8314 19.0547 24.0202 18.0664 24.0403 17.0647C24.0979 15.7764 24.1153 15.368 24.1153 12.0965C24.1153 8.82495 24.1153 8.40982 24.0403 7.12826C24.0247 6.11355 23.834 5.10916 23.4765 4.15938ZM21.8454 16.9241C21.8368 17.6958 21.6959 18.4604 21.429 19.1846C21.2279 19.7053 20.92 20.1782 20.5251 20.5728C20.1303 20.9674 19.6572 21.275 19.1364 21.4758C18.4202 21.7416 17.6638 21.8825 16.9 21.8923C15.6278 21.9512 15.2689 21.966 12.0068 21.966C8.74193 21.966 8.40848 21.966 7.11219 21.8923C6.34878 21.883 5.5927 21.7421 4.87716 21.4758C4.35448 21.2763 3.8795 20.9692 3.48296 20.5745C3.08643 20.1799 2.77716 19.7063 2.57517 19.1846C2.31196 18.4682 2.17117 17.7126 2.1587 16.9495C2.10112 15.6774 2.08772 15.3185 2.08772 12.0563C2.08772 8.79282 2.08772 8.45937 2.1587 7.16174C2.16735 6.39042 2.30822 5.6263 2.57517 4.9026C2.98361 3.84602 3.82058 3.01441 4.87716 2.60999C5.59305 2.34503 6.34891 2.20418 7.11219 2.19352C8.38572 2.13593 8.74327 2.11986 12.0068 2.11986C15.2703 2.11986 15.605 2.11986 16.9 2.19352C17.6638 2.20271 18.4204 2.3436 19.1364 2.60999C19.6572 2.81123 20.1302 3.11914 20.525 3.51395C20.9198 3.90877 21.2277 4.38177 21.429 4.9026C21.6922 5.61898 21.833 6.37454 21.8454 7.13763C21.903 8.41116 21.9178 8.76871 21.9178 12.0322C21.9178 15.2944 21.9178 15.6452 21.8602 16.9254H21.8454V16.9241Z" fill="white"></path></svg>