<svg xmlns="http://www.w3.org/2000/svg" width="114" height="88" viewBox="0 0 114 88" fill="none">
  <g clip-path="url(#clip0_10_381)">
    <path d="M114 32.1559L56.9955 0L0 32.1559L20.0303 43.5202L0 54.8134L20.0303 66.1777L57.0045 88L114.009 54.8134L93.9787 43.5113L114.009 32.147L114 32.1559ZM8.38248 32.1559L56.9955 4.72698L105.618 32.147L89.7829 41.1389L57.0134 59.7359L8.38248 32.1559ZM105.618 54.8223L101.511 57.1591L97.9597 59.1761C97.9597 59.1761 97.9597 59.185 97.9597 59.1939L89.774 63.8409L77.831 70.6115L57.0045 82.4378L8.36459 54.8312L24.1365 45.8926L26.3462 47.1454C26.3462 47.1454 26.3641 47.1276 26.3731 47.1187L31.0698 49.7754C31.0698 49.7754 31.034 49.7754 31.0071 49.7843L32.9753 50.895C32.9753 50.895 32.9663 50.8683 32.9574 50.8506L54.3922 63.0145L57.0045 64.4895L89.7919 45.8837L105.626 54.8134L105.618 54.8223Z" fill="#1A1A1A"/>
  </g>
  <defs>
    <clipPath id="clip0_10_381">
      <rect width="114" height="88" fill="white"/>
    </clipPath>
  </defs>
</svg>